<svg width="20" height="21" viewBox="0 0 20 21" fill="none" xmlns="http://www.w3.org/2000/svg">
<path d="M5.625 5.5C4.6361 5.5 3.6694 5.79324 2.84715 6.34265C2.02491 6.89206 1.38404 7.67295 1.0056 8.58658C0.627166 9.50021 0.52815 10.5055 0.721076 11.4755C0.914002 12.4454 1.39021 13.3363 2.08947 14.0355C2.78873 14.7348 3.67965 15.211 4.64955 15.4039C5.61946 15.5969 6.62479 15.4978 7.53842 15.1194C8.45205 14.741 9.23294 14.1001 9.78235 13.2779C10.3318 12.4556 10.625 11.4889 10.625 10.5C10.6236 9.17436 10.0963 7.90343 9.15894 6.96607C8.22157 6.0287 6.95064 5.50145 5.625 5.5ZM5.625 14.25C4.88332 14.25 4.1583 14.0301 3.54161 13.618C2.92493 13.206 2.44428 12.6203 2.16045 11.9351C1.87663 11.2498 1.80236 10.4958 1.94706 9.76841C2.09175 9.04098 2.4489 8.3728 2.97335 7.84835C3.4978 7.3239 4.16599 6.96675 4.89341 6.82206C5.62084 6.67736 6.37484 6.75162 7.06007 7.03545C7.74529 7.31928 8.33096 7.79993 8.74301 8.41661C9.15507 9.0333 9.375 9.75832 9.375 10.5C9.37397 11.4942 8.97855 12.4475 8.27551 13.1505C7.57247 13.8535 6.61925 14.249 5.625 14.25ZM14.375 5.5C13.9313 5.5 13.0938 5.71563 12.475 7.16016C12.0883 8.0625 11.875 9.25 11.875 10.5C11.875 11.75 12.0883 12.9375 12.475 13.8398C13.0938 15.2844 13.9313 15.5 14.375 15.5C14.8188 15.5 15.6563 15.2844 16.275 13.8398C16.6617 12.9375 16.875 11.75 16.875 10.5C16.875 9.25 16.6617 8.0625 16.275 7.16016C15.6563 5.71563 14.8188 5.5 14.375 5.5ZM14.375 14.25C13.9344 14.25 13.125 12.8266 13.125 10.5C13.125 8.17344 13.9344 6.75 14.375 6.75C14.8156 6.75 15.625 8.17344 15.625 10.5C15.625 12.8266 14.8156 14.25 14.375 14.25ZM19.375 6.125V14.875C19.375 15.0408 19.3092 15.1997 19.1919 15.3169C19.0747 15.4342 18.9158 15.5 18.75 15.5C18.5842 15.5 18.4253 15.4342 18.3081 15.3169C18.1908 15.1997 18.125 15.0408 18.125 14.875V6.125C18.125 5.95924 18.1908 5.80027 18.3081 5.68306C18.4253 5.56585 18.5842 5.5 18.75 5.5C18.9158 5.5 19.0747 5.56585 19.1919 5.68306C19.3092 5.80027 19.375 5.95924 19.375 6.125Z" fill="#4E616B"/>
</svg>
