<svg width="642" height="242" viewBox="0 0 642 242" fill="none" xmlns="http://www.w3.org/2000/svg">
<rect width="642" height="242" rx="24" fill="white"/>
<rect x="26" y="43.5" width="590" height="71" rx="11.5" fill="#FFF9F6"/>
<rect x="26" y="43.5" width="590" height="71" rx="11.5" stroke="#E36B37"/>
<rect x="42" y="59.5" width="45" height="31" rx="5.5" fill="white"/>
<rect x="42" y="59.5" width="45" height="31" rx="5.5" stroke="#F2F4F7"/>
<path fill-rule="evenodd" clip-rule="evenodd" d="M55.8337 80.1443H53.0874L51.028 72.0565C50.9302 71.6844 50.7227 71.3555 50.4174 71.2005C49.6555 70.811 48.8159 70.5009 47.9 70.3446V70.0332H52.3241C52.9347 70.0332 53.3927 70.5009 53.469 71.0442L54.5375 76.8782L57.2825 70.0332H59.9525L55.8337 80.1443ZM61.479 80.1443H58.8853L61.021 70.0332H63.6147L61.479 80.1443ZM66.9703 72.8343C67.0466 72.2897 67.5046 71.9783 68.0388 71.9783C68.8784 71.9001 69.7929 72.0565 70.5562 72.4447L71.0141 70.2677C70.2509 69.9564 69.4113 69.8 68.6494 69.8C66.1321 69.8 64.3003 71.2005 64.3003 73.1443C64.3003 74.623 65.5978 75.3995 66.5137 75.8672C67.5046 76.3336 67.8862 76.645 67.8099 77.1114C67.8099 77.811 67.0466 78.1224 66.2847 78.1224C65.3688 78.1224 64.4529 77.8892 63.6147 77.4996L63.1568 79.6779C64.0727 80.0661 65.0635 80.2225 65.9794 80.2225C68.8021 80.2993 70.5562 78.9001 70.5562 76.8C70.5562 74.1553 66.9703 74.0003 66.9703 72.8343ZM79.6334 80.1443L77.574 70.0332H75.3619C74.904 70.0332 74.446 70.3446 74.2934 70.811L70.4798 80.1443H73.1498L73.6828 78.6669H76.9634L77.2687 80.1443H79.6334ZM75.7435 72.7561L76.5054 76.5668H74.3697L75.7435 72.7561Z" fill="#172B85"/>
<path d="M100.619 63.8182H102.483L105.724 71.733H105.844L109.085 63.8182H110.95V74H109.488V66.6321H109.393L106.391 73.9851H105.178L102.175 66.6271H102.08V74H100.619V63.8182ZM113.064 76.8636V66.3636H114.515V67.6016H114.64C114.726 67.4425 114.85 67.2585 115.013 67.0497C115.175 66.8409 115.4 66.6586 115.689 66.5028C115.977 66.3438 116.358 66.2642 116.832 66.2642C117.449 66.2642 117.999 66.42 118.483 66.7315C118.967 67.0431 119.346 67.4922 119.621 68.0788C119.9 68.6655 120.039 69.3714 120.039 70.1967C120.039 71.022 119.901 71.7296 119.626 72.3196C119.351 72.9062 118.973 73.3587 118.493 73.6768C118.012 73.9917 117.464 74.1491 116.847 74.1491C116.383 74.1491 116.004 74.0713 115.709 73.9155C115.417 73.7597 115.188 73.5774 115.023 73.3686C114.857 73.1598 114.729 72.9742 114.64 72.8118H114.55V76.8636H113.064ZM114.52 70.1818C114.52 70.7187 114.598 71.1894 114.754 71.5938C114.91 71.9981 115.135 72.3146 115.43 72.5433C115.725 72.7687 116.086 72.8814 116.514 72.8814C116.958 72.8814 117.329 72.7637 117.628 72.5284C117.926 72.2898 118.151 71.9666 118.304 71.5589C118.46 71.1513 118.537 70.6922 118.537 70.1818C118.537 69.678 118.461 69.2256 118.309 68.8246C118.16 68.4235 117.934 68.107 117.633 67.875C117.334 67.643 116.961 67.527 116.514 67.527C116.083 67.527 115.719 67.638 115.42 67.8601C115.125 68.0821 114.902 68.392 114.749 68.7898C114.597 69.1875 114.52 69.6515 114.52 70.1818ZM124.996 74.1541C124.243 74.1541 123.595 73.9934 123.052 73.6719C122.511 73.3471 122.094 72.8913 121.799 72.3047C121.507 71.7147 121.361 71.0237 121.361 70.2315C121.361 69.4493 121.507 68.7599 121.799 68.1634C122.094 67.5668 122.505 67.1011 123.032 66.7663C123.562 66.4316 124.182 66.2642 124.891 66.2642C125.322 66.2642 125.74 66.3355 126.144 66.478C126.548 66.6205 126.911 66.8442 127.233 67.1491C127.554 67.4541 127.808 67.8501 127.993 68.3374C128.179 68.8213 128.272 69.4096 128.272 70.1023V70.6293H122.202V69.5156H126.815C126.815 69.1245 126.736 68.7782 126.577 68.4766C126.417 68.1716 126.194 67.9313 125.905 67.7557C125.62 67.58 125.286 67.4922 124.901 67.4922C124.483 67.4922 124.119 67.5949 123.807 67.8004C123.499 68.0026 123.26 68.2678 123.091 68.5959C122.926 68.9207 122.843 69.2737 122.843 69.6548V70.5249C122.843 71.0353 122.932 71.4695 123.111 71.8274C123.294 72.1854 123.547 72.4588 123.872 72.6477C124.197 72.8333 124.576 72.9261 125.01 72.9261C125.292 72.9261 125.549 72.8864 125.781 72.8068C126.013 72.724 126.214 72.6013 126.383 72.4389C126.552 72.2765 126.681 72.076 126.77 71.8374L128.177 72.0909C128.065 72.5052 127.863 72.8681 127.571 73.1797C127.282 73.4879 126.92 73.7282 126.482 73.9006C126.048 74.0696 125.552 74.1541 124.996 74.1541ZM135.643 68.228L134.296 68.4666C134.24 68.2943 134.15 68.1302 134.028 67.9744C133.908 67.8187 133.746 67.6911 133.54 67.5916C133.335 67.4922 133.078 67.4425 132.77 67.4425C132.349 67.4425 131.998 67.5369 131.716 67.7259C131.434 67.9115 131.293 68.1518 131.293 68.4467C131.293 68.7019 131.388 68.9074 131.577 69.0632C131.766 69.219 132.071 69.3466 132.491 69.446L133.705 69.7244C134.407 69.8868 134.931 70.1371 135.276 70.4751C135.62 70.8132 135.793 71.2524 135.793 71.7926C135.793 72.25 135.66 72.6577 135.395 73.0156C135.133 73.3703 134.767 73.6487 134.296 73.8509C133.829 74.053 133.287 74.1541 132.67 74.1541C131.815 74.1541 131.118 73.9718 130.577 73.6072C130.037 73.2393 129.706 72.7173 129.583 72.0412L131.02 71.8224C131.109 72.197 131.293 72.4804 131.572 72.6726C131.85 72.8615 132.213 72.956 132.661 72.956C133.148 72.956 133.537 72.8549 133.829 72.6527C134.121 72.4472 134.266 72.197 134.266 71.902C134.266 71.6634 134.177 71.4628 133.998 71.3004C133.822 71.138 133.552 71.0154 133.188 70.9325L131.895 70.6491C131.182 70.4867 130.655 70.2282 130.314 69.8736C129.976 69.5189 129.807 69.0698 129.807 68.5263C129.807 68.0755 129.933 67.6811 130.185 67.343C130.437 67.005 130.785 66.7415 131.229 66.5526C131.673 66.3603 132.182 66.2642 132.755 66.2642C133.58 66.2642 134.23 66.4432 134.704 66.8011C135.178 67.1558 135.491 67.6314 135.643 68.228ZM139.649 74.169C139.165 74.169 138.728 74.0795 138.337 73.9006C137.946 73.7183 137.636 73.4548 137.407 73.1101C137.182 72.7654 137.069 72.3428 137.069 71.8423C137.069 71.4115 137.152 71.0568 137.318 70.7784C137.483 70.5 137.707 70.2796 137.989 70.1172C138.271 69.9548 138.585 69.8321 138.933 69.7493C139.281 69.6664 139.636 69.6035 139.997 69.5604C140.455 69.5073 140.826 69.4643 141.111 69.4311C141.396 69.3946 141.603 69.3366 141.732 69.2571C141.862 69.1776 141.926 69.0483 141.926 68.8693V68.8345C141.926 68.4003 141.804 68.0639 141.558 67.8253C141.316 67.5866 140.955 67.4673 140.475 67.4673C139.974 67.4673 139.58 67.5784 139.291 67.8004C139.006 68.0192 138.809 68.2628 138.7 68.5312L137.303 68.2131C137.468 67.7491 137.71 67.3745 138.029 67.0895C138.35 66.8011 138.72 66.5923 139.137 66.4631C139.555 66.3305 139.994 66.2642 140.455 66.2642C140.76 66.2642 141.083 66.3007 141.424 66.3736C141.769 66.4432 142.09 66.5724 142.389 66.7614C142.69 66.9503 142.937 67.2204 143.129 67.5717C143.322 67.9197 143.418 68.3722 143.418 68.929V74H141.966V72.956H141.906C141.81 73.1482 141.666 73.3371 141.474 73.5227C141.282 73.7083 141.035 73.8625 140.733 73.9851C140.432 74.1077 140.07 74.169 139.649 74.169ZM139.972 72.9759C140.383 72.9759 140.735 72.8946 141.026 72.7322C141.321 72.5698 141.545 72.3577 141.698 72.0959C141.853 71.8307 141.931 71.5473 141.931 71.2457V70.2614C141.878 70.3144 141.776 70.3641 141.623 70.4105C141.474 70.4536 141.303 70.4917 141.111 70.5249C140.919 70.5547 140.731 70.5829 140.549 70.6094C140.367 70.6326 140.214 70.6525 140.092 70.669C139.803 70.7055 139.54 70.7668 139.301 70.853C139.066 70.9392 138.877 71.0634 138.735 71.2259C138.595 71.3849 138.526 71.5971 138.526 71.8622C138.526 72.2301 138.662 72.5085 138.933 72.6974C139.205 72.883 139.552 72.9759 139.972 72.9759ZM150.082 74H148.452L152.116 63.8182H153.89L157.555 74H155.924L153.045 65.6676H152.966L150.082 74ZM150.356 70.0128H155.645V71.3054H150.356V70.0128ZM161.999 74.1541C161.26 74.1541 160.624 73.9867 160.09 73.652C159.56 73.3139 159.152 72.8482 158.867 72.255C158.582 71.6617 158.439 70.9822 158.439 70.2166C158.439 69.4411 158.585 68.7566 158.877 68.1634C159.169 67.5668 159.58 67.1011 160.11 66.7663C160.64 66.4316 161.265 66.2642 161.984 66.2642C162.564 66.2642 163.081 66.3719 163.535 66.5874C163.989 66.7995 164.356 67.0978 164.634 67.4822C164.916 67.8667 165.083 68.3158 165.136 68.8295H163.689C163.61 68.4716 163.428 68.1634 163.143 67.9048C162.861 67.6463 162.483 67.517 162.009 67.517C161.595 67.517 161.232 67.6264 160.92 67.8452C160.612 68.0606 160.372 68.3688 160.199 68.7699C160.027 69.1676 159.941 69.6383 159.941 70.1818C159.941 70.7386 160.025 71.2192 160.194 71.6236C160.363 72.0279 160.602 72.3411 160.91 72.5632C161.222 72.7853 161.588 72.8963 162.009 72.8963C162.291 72.8963 162.546 72.8449 162.775 72.7422C163.007 72.6361 163.201 72.4853 163.356 72.2898C163.515 72.0942 163.626 71.8589 163.689 71.5838H165.136C165.083 72.0777 164.922 72.5185 164.654 72.9062C164.385 73.294 164.026 73.599 163.575 73.821C163.128 74.0431 162.602 74.1541 161.999 74.1541ZM169.942 74.1541C169.203 74.1541 168.567 73.9867 168.033 73.652C167.503 73.3139 167.095 72.8482 166.81 72.255C166.525 71.6617 166.383 70.9822 166.383 70.2166C166.383 69.4411 166.529 68.7566 166.82 68.1634C167.112 67.5668 167.523 67.1011 168.053 66.7663C168.584 66.4316 169.208 66.2642 169.928 66.2642C170.508 66.2642 171.025 66.3719 171.479 66.5874C171.933 66.7995 172.299 67.0978 172.577 67.4822C172.859 67.8667 173.027 68.3158 173.08 68.8295H171.633C171.553 68.4716 171.371 68.1634 171.086 67.9048C170.804 67.6463 170.426 67.517 169.952 67.517C169.538 67.517 169.175 67.6264 168.864 67.8452C168.555 68.0606 168.315 68.3688 168.143 68.7699C167.97 69.1676 167.884 69.6383 167.884 70.1818C167.884 70.7386 167.969 71.2192 168.138 71.6236C168.307 72.0279 168.545 72.3411 168.854 72.5632C169.165 72.7853 169.531 72.8963 169.952 72.8963C170.234 72.8963 170.489 72.8449 170.718 72.7422C170.95 72.6361 171.144 72.4853 171.3 72.2898C171.459 72.0942 171.57 71.8589 171.633 71.5838H173.08C173.027 72.0777 172.866 72.5185 172.597 72.9062C172.329 73.294 171.969 73.599 171.518 73.821C171.071 74.0431 170.546 74.1541 169.942 74.1541ZM177.886 74.1541C177.17 74.1541 176.545 73.9901 176.012 73.6619C175.478 73.3338 175.064 72.8748 174.769 72.2848C174.474 71.6948 174.326 71.0054 174.326 70.2166C174.326 69.4245 174.474 68.7318 174.769 68.1385C175.064 67.5452 175.478 67.0845 176.012 66.7564C176.545 66.4283 177.17 66.2642 177.886 66.2642C178.602 66.2642 179.227 66.4283 179.76 66.7564C180.294 67.0845 180.708 67.5452 181.003 68.1385C181.298 68.7318 181.445 69.4245 181.445 70.2166C181.445 71.0054 181.298 71.6948 181.003 72.2848C180.708 72.8748 180.294 73.3338 179.76 73.6619C179.227 73.9901 178.602 74.1541 177.886 74.1541ZM177.891 72.9062C178.355 72.9062 178.739 72.7836 179.044 72.5384C179.349 72.2931 179.575 71.9666 179.72 71.5589C179.869 71.1513 179.944 70.7022 179.944 70.2116C179.944 69.7244 179.869 69.277 179.72 68.8693C179.575 68.4583 179.349 68.1286 179.044 67.88C178.739 67.6314 178.355 67.5071 177.891 67.5071C177.423 67.5071 177.036 67.6314 176.727 67.88C176.423 68.1286 176.195 68.4583 176.046 68.8693C175.901 69.277 175.828 69.7244 175.828 70.2116C175.828 70.7022 175.901 71.1513 176.046 71.5589C176.195 71.9666 176.423 72.2931 176.727 72.5384C177.036 72.7836 177.423 72.9062 177.891 72.9062ZM187.942 70.8331V66.3636H189.434V74H187.972V72.6776H187.892C187.717 73.0852 187.435 73.425 187.047 73.6967C186.663 73.9652 186.184 74.0994 185.61 74.0994C185.12 74.0994 184.686 73.9917 184.308 73.7763C183.933 73.5575 183.638 73.2344 183.423 72.8068C183.211 72.3793 183.105 71.8506 183.105 71.2209V66.3636H184.591V71.0419C184.591 71.5623 184.735 71.9766 185.024 72.2848C185.312 72.593 185.687 72.7472 186.147 72.7472C186.426 72.7472 186.703 72.6776 186.978 72.5384C187.256 72.3991 187.486 72.1887 187.669 71.907C187.854 71.6252 187.945 71.2673 187.942 70.8331ZM192.917 69.4659V74H191.431V66.3636H192.858V67.6065H192.952C193.128 67.2022 193.403 66.8774 193.778 66.6321C194.155 66.3868 194.631 66.2642 195.204 66.2642C195.725 66.2642 196.18 66.3736 196.572 66.5923C196.963 66.8078 197.266 67.1293 197.481 67.5568C197.697 67.9844 197.805 68.513 197.805 69.1428V74H196.318V69.3217C196.318 68.7682 196.174 68.3357 195.885 68.0241C195.597 67.7093 195.201 67.5518 194.697 67.5518C194.353 67.5518 194.046 67.6264 193.778 67.7756C193.512 67.9247 193.302 68.1435 193.146 68.4318C192.994 68.7169 192.917 69.0616 192.917 69.4659ZM203.363 66.3636V67.5568H199.192V66.3636H203.363ZM200.31 64.5341H201.797V71.7578C201.797 72.0462 201.84 72.2633 201.926 72.4091C202.012 72.5516 202.123 72.6494 202.259 72.7024C202.398 72.7521 202.549 72.777 202.711 72.777C202.831 72.777 202.935 72.7687 203.025 72.7521C203.114 72.7356 203.184 72.7223 203.233 72.7124L203.502 73.9403C203.416 73.9735 203.293 74.0066 203.134 74.0398C202.975 74.0762 202.776 74.0961 202.537 74.0994C202.146 74.1061 201.782 74.0365 201.444 73.8906C201.106 73.7448 200.832 73.5194 200.623 73.2145C200.415 72.9096 200.31 72.5268 200.31 72.0661V64.5341Z" fill="#E36B37"/>
<path d="M102.523 89.5455L102.602 87.358L100.753 88.5312L100.276 87.696L102.224 86.6818L100.276 85.6676L100.753 84.8324L102.602 86.0057L102.523 83.8182H103.477L103.398 86.0057L105.247 84.8324L105.724 85.6676L103.776 86.6818L105.724 87.696L105.247 88.5312L103.398 87.358L103.477 89.5455H102.523ZM109.523 89.5455L109.602 87.358L107.753 88.5312L107.276 87.696L109.224 86.6818L107.276 85.6676L107.753 84.8324L109.602 86.0057L109.523 83.8182H110.477L110.398 86.0057L112.247 84.8324L112.724 85.6676L110.776 86.6818L112.724 87.696L112.247 88.5312L110.398 87.358L110.477 89.5455H109.523ZM116.523 89.5455L116.602 87.358L114.753 88.5312L114.276 87.696L116.224 86.6818L114.276 85.6676L114.753 84.8324L116.602 86.0057L116.523 83.8182H117.477L117.398 86.0057L119.247 84.8324L119.724 85.6676L117.776 86.6818L119.724 87.696L119.247 88.5312L117.398 87.358L117.477 89.5455H116.523ZM123.523 89.5455L123.602 87.358L121.753 88.5312L121.276 87.696L123.224 86.6818L121.276 85.6676L121.753 84.8324L123.602 86.0057L123.523 83.8182H124.477L124.398 86.0057L126.247 84.8324L126.724 85.6676L124.776 86.6818L126.724 87.696L126.247 88.5312L124.398 87.358L124.477 89.5455H123.523ZM130.523 89.5455L130.602 87.358L128.753 88.5312L128.276 87.696L130.224 86.6818L128.276 85.6676L128.753 84.8324L130.602 86.0057L130.523 83.8182H131.477L131.398 86.0057L133.247 84.8324L133.724 85.6676L131.776 86.6818L133.724 87.696L133.247 88.5312L131.398 87.358L131.477 89.5455H130.523ZM137.523 89.5455L137.602 87.358L135.753 88.5312L135.276 87.696L137.224 86.6818L135.276 85.6676L135.753 84.8324L137.602 86.0057L137.523 83.8182H138.477L138.398 86.0057L140.247 84.8324L140.724 85.6676L138.776 86.6818L140.724 87.696L140.247 88.5312L138.398 87.358L138.477 89.5455H137.523ZM144.523 89.5455L144.602 87.358L142.753 88.5312L142.276 87.696L144.224 86.6818L142.276 85.6676L142.753 84.8324L144.602 86.0057L144.523 83.8182H145.477L145.398 86.0057L147.247 84.8324L147.724 85.6676L145.776 86.6818L147.724 87.696L147.247 88.5312L145.398 87.358L145.477 89.5455H144.523ZM149.554 94V93.1051L152.915 89.4261C153.309 88.9953 153.634 88.6207 153.889 88.3026C154.144 87.9811 154.333 87.6795 154.456 87.3977C154.582 87.1127 154.645 86.8144 154.645 86.5028C154.645 86.1449 154.559 85.835 154.386 85.5732C154.217 85.3113 153.985 85.1091 153.69 84.9666C153.395 84.8241 153.064 84.7528 152.696 84.7528C152.305 84.7528 151.964 84.834 151.672 84.9964C151.384 85.1555 151.16 85.3793 151.001 85.6676C150.845 85.956 150.767 86.294 150.767 86.6818H149.594C149.594 86.0852 149.731 85.5616 150.006 85.1108C150.281 84.66 150.656 84.3087 151.13 84.0568C151.607 83.8049 152.143 83.679 152.736 83.679C153.332 83.679 153.861 83.8049 154.322 84.0568C154.782 84.3087 155.144 84.6484 155.406 85.076C155.667 85.5036 155.798 85.9792 155.798 86.5028C155.798 86.8774 155.73 87.2436 155.594 87.6016C155.462 87.9562 155.23 88.3523 154.898 88.7898C154.57 89.224 154.115 89.7543 153.531 90.3807L151.244 92.8267V92.9062H155.977V94H149.554ZM157.573 91.9119V90.8977L162.048 83.8182H162.783V85.3892H162.286L158.906 90.7386V90.8182H164.931V91.9119H157.573ZM162.366 94V91.6037V91.1314V83.8182H163.539V94H162.366ZM170.235 94.1392C169.578 94.1392 168.993 94.0265 168.48 93.8011C167.969 93.5758 167.563 93.2625 167.262 92.8615C166.963 92.4571 166.801 91.9882 166.774 91.4545H168.027C168.054 91.7827 168.166 92.0661 168.365 92.3047C168.564 92.54 168.824 92.7223 169.146 92.8516C169.467 92.9808 169.824 93.0455 170.215 93.0455C170.652 93.0455 171.04 92.9692 171.378 92.8168C171.716 92.6643 171.981 92.4522 172.173 92.1804C172.366 91.9086 172.462 91.5938 172.462 91.2358C172.462 90.8613 172.369 90.5315 172.183 90.2464C171.998 89.9581 171.726 89.7327 171.368 89.5703C171.01 89.4079 170.573 89.3267 170.056 89.3267H169.24V88.233H170.056C170.46 88.233 170.815 88.16 171.119 88.0142C171.428 87.8684 171.668 87.6629 171.84 87.3977C172.016 87.1326 172.104 86.821 172.104 86.4631C172.104 86.1184 172.028 85.8184 171.875 85.5632C171.723 85.308 171.507 85.1091 171.229 84.9666C170.954 84.8241 170.629 84.7528 170.254 84.7528C169.903 84.7528 169.572 84.8175 169.26 84.9467C168.952 85.0727 168.7 85.2566 168.504 85.4986C168.309 85.7372 168.203 86.0256 168.186 86.3636H166.993C167.013 85.83 167.174 85.3627 167.475 84.9616C167.777 84.5573 168.171 84.2424 168.659 84.017C169.149 83.7917 169.688 83.679 170.274 83.679C170.904 83.679 171.444 83.8066 171.895 84.0618C172.346 84.3137 172.692 84.6468 172.934 85.0611C173.176 85.4754 173.297 85.9228 173.297 86.4034C173.297 86.9768 173.146 87.4657 172.845 87.87C172.546 88.2744 172.14 88.5545 171.627 88.7102V88.7898C172.27 88.8958 172.772 89.1693 173.133 89.6101C173.494 90.0476 173.675 90.5895 173.675 91.2358C173.675 91.7893 173.524 92.2865 173.222 92.7273C172.924 93.1648 172.517 93.5095 171.999 93.7614C171.482 94.0133 170.894 94.1392 170.235 94.1392ZM178.89 94.1392C178.307 94.1392 177.781 94.0232 177.314 93.7912C176.847 93.5592 176.472 93.241 176.191 92.8366C175.909 92.4323 175.755 91.9716 175.728 91.4545H176.921C176.968 91.9152 177.177 92.2964 177.548 92.598C177.922 92.8963 178.37 93.0455 178.89 93.0455C179.308 93.0455 179.679 92.9477 180.004 92.7521C180.332 92.5566 180.589 92.2881 180.774 91.9467C180.963 91.602 181.058 91.2126 181.058 90.7784C181.058 90.3343 180.96 89.9382 180.764 89.5902C180.572 89.2389 180.307 88.9621 179.969 88.7599C179.631 88.5578 179.245 88.455 178.811 88.4517C178.499 88.4484 178.179 88.4964 177.851 88.5959C177.523 88.692 177.253 88.8163 177.041 88.9688L175.887 88.8295L176.504 83.8182H181.794V84.9119H177.538L177.18 87.9148H177.24C177.448 87.7491 177.71 87.6115 178.025 87.5021C178.34 87.3928 178.668 87.3381 179.009 87.3381C179.633 87.3381 180.188 87.4872 180.675 87.7855C181.165 88.0805 181.55 88.4848 181.828 88.9986C182.11 89.5123 182.251 90.099 182.251 90.7585C182.251 91.4081 182.105 91.9882 181.813 92.4986C181.525 93.0057 181.127 93.4067 180.62 93.7017C180.113 93.9934 179.536 94.1392 178.89 94.1392Z" fill="#C43B00"/>
<rect x="585" y="59.5" width="15" height="15" rx="7.5" fill="#E36B37"/>
<rect x="585" y="59.5" width="15" height="15" rx="7.5" stroke="#E36B37"/>
<path d="M595.833 64.5L591.25 69.0833L589.167 67" stroke="white" stroke-width="1.66667" stroke-linecap="round" stroke-linejoin="round"/>
<rect x="26" y="127.5" width="590" height="71" rx="11.5" fill="white"/>
<rect x="26" y="127.5" width="590" height="71" rx="11.5" stroke="#E4E7EC"/>
<rect x="42" y="143.5" width="45" height="31" rx="5.5" fill="white"/>
<rect x="42" y="143.5" width="45" height="31" rx="5.5" stroke="#F2F4F7"/>
<path fill-rule="evenodd" clip-rule="evenodd" d="M54.1964 154.124C53.8096 154.593 53.1908 154.963 52.572 154.911C52.4946 154.276 52.7976 153.602 53.1521 153.186C53.5389 152.703 54.2157 152.36 54.7636 152.333C54.8281 152.994 54.5767 153.642 54.1964 154.124ZM54.7571 155.036C54.212 155.004 53.7145 155.204 53.3127 155.366C53.0542 155.47 52.8352 155.558 52.6686 155.558C52.4817 155.558 52.2537 155.465 51.9977 155.361C51.6623 155.225 51.2788 155.068 50.8766 155.076C49.9548 155.089 49.0975 155.624 48.627 156.477C47.6601 158.182 48.3756 160.706 49.3102 162.094C49.7679 162.781 50.3158 163.535 51.0378 163.508C51.3554 163.496 51.5839 163.396 51.8203 163.294C52.0925 163.175 52.3753 163.052 52.8169 163.052C53.2431 163.052 53.5136 163.172 53.7731 163.287C54.02 163.396 54.257 163.501 54.6089 163.495C55.3566 163.482 55.8272 162.808 56.2849 162.12C56.7788 161.383 56.9958 160.663 57.0287 160.554L57.0326 160.541C57.0318 160.54 57.0257 160.537 57.015 160.532L57.0149 160.532C56.8498 160.455 55.5879 159.862 55.5758 158.274C55.5636 156.941 56.5767 156.266 56.7362 156.159L56.7362 156.159C56.7459 156.153 56.7525 156.149 56.7554 156.146C56.1108 155.168 55.1052 155.063 54.7571 155.036ZM59.9334 163.422V153.12H63.7043C65.651 153.12 67.0111 154.494 67.0111 156.503C67.0111 158.512 65.6252 159.9 63.6527 159.9H61.4933V163.422H59.9334ZM61.4932 154.468H63.2916C64.6453 154.468 65.4188 155.208 65.4188 156.51C65.4188 157.812 64.6453 158.558 63.2852 158.558H61.4932V154.468ZM72.1616 162.186C71.749 162.993 70.8401 163.502 69.8603 163.502C68.41 163.502 67.3979 162.616 67.3979 161.281C67.3979 159.959 68.3777 159.199 70.1891 159.087L72.1358 158.968V158.4C72.1358 157.561 71.6008 157.105 70.6467 157.105C69.8603 157.105 69.2866 157.521 69.1706 158.155H67.7654C67.8105 156.82 69.0352 155.849 70.6919 155.849C72.4774 155.849 73.6377 156.807 73.6377 158.294V163.422H72.1938V162.186H72.1616ZM70.2792 162.279C69.4477 162.279 68.9191 161.869 68.9191 161.241C68.9191 160.594 69.4283 160.217 70.4017 160.158L72.1357 160.045V160.627C72.1357 161.592 71.3364 162.279 70.2792 162.279ZM78.4271 163.825C77.8018 165.629 77.0863 166.224 75.565 166.224C75.449 166.224 75.0622 166.211 74.972 166.185V164.949C75.0687 164.962 75.3072 164.975 75.4296 164.975C76.1194 164.975 76.5061 164.678 76.7446 163.905L76.8864 163.449L74.2436 155.948H75.8744L77.7115 162.034H77.7438L79.5809 155.948H81.1666L78.4271 163.825Z" fill="black"/>
<path d="M100.355 158V156.976L105.71 149.141H100.31V147.818H107.589V148.842L102.234 156.678H107.634V158H100.355ZM112.732 158.154C111.98 158.154 111.332 157.993 110.788 157.672C110.248 157.347 109.83 156.891 109.535 156.305C109.243 155.715 109.098 155.024 109.098 154.232C109.098 153.449 109.243 152.76 109.535 152.163C109.83 151.567 110.241 151.101 110.768 150.766C111.298 150.432 111.918 150.264 112.627 150.264C113.058 150.264 113.476 150.335 113.88 150.478C114.285 150.621 114.648 150.844 114.969 151.149C115.291 151.454 115.544 151.85 115.73 152.337C115.915 152.821 116.008 153.41 116.008 154.102V154.629H109.938V153.516H114.551C114.551 153.125 114.472 152.778 114.313 152.477C114.154 152.172 113.93 151.931 113.642 151.756C113.357 151.58 113.022 151.492 112.637 151.492C112.22 151.492 111.855 151.595 111.544 151.8C111.235 152.003 110.997 152.268 110.828 152.596C110.662 152.921 110.579 153.274 110.579 153.655V154.525C110.579 155.035 110.669 155.469 110.848 155.827C111.03 156.185 111.283 156.459 111.608 156.648C111.933 156.833 112.313 156.926 112.747 156.926C113.029 156.926 113.285 156.886 113.517 156.807C113.749 156.724 113.95 156.601 114.119 156.439C114.288 156.277 114.417 156.076 114.507 155.837L115.914 156.091C115.801 156.505 115.599 156.868 115.307 157.18C115.019 157.488 114.656 157.728 114.218 157.901C113.784 158.07 113.289 158.154 112.732 158.154ZM119.144 153.466V158H117.657V150.364H119.084V151.607H119.179C119.354 151.202 119.63 150.877 120.004 150.632C120.382 150.387 120.858 150.264 121.431 150.264C121.951 150.264 122.407 150.374 122.798 150.592C123.189 150.808 123.492 151.129 123.708 151.557C123.923 151.984 124.031 152.513 124.031 153.143V158H122.545V153.322C122.545 152.768 122.4 152.336 122.112 152.024C121.824 151.709 121.428 151.552 120.924 151.552C120.579 151.552 120.273 151.626 120.004 151.776C119.739 151.925 119.528 152.143 119.373 152.432C119.22 152.717 119.144 153.062 119.144 153.466ZM126.025 158V150.364H127.511V158H126.025ZM126.775 149.185C126.517 149.185 126.295 149.099 126.109 148.927C125.927 148.751 125.836 148.542 125.836 148.3C125.836 148.055 125.927 147.846 126.109 147.674C126.295 147.498 126.517 147.411 126.775 147.411C127.034 147.411 127.254 147.498 127.437 147.674C127.622 147.846 127.715 148.055 127.715 148.3C127.715 148.542 127.622 148.751 127.437 148.927C127.254 149.099 127.034 149.185 126.775 149.185ZM133.076 150.364V151.557H128.904V150.364H133.076ZM130.023 148.534H131.51V155.758C131.51 156.046 131.553 156.263 131.639 156.409C131.725 156.552 131.836 156.649 131.972 156.702C132.111 156.752 132.262 156.777 132.424 156.777C132.544 156.777 132.648 156.769 132.738 156.752C132.827 156.736 132.897 156.722 132.946 156.712L133.215 157.94C133.129 157.973 133.006 158.007 132.847 158.04C132.688 158.076 132.489 158.096 132.25 158.099C131.859 158.106 131.495 158.036 131.157 157.891C130.819 157.745 130.545 157.519 130.336 157.214C130.127 156.91 130.023 156.527 130.023 156.066V148.534ZM136.371 153.466V158H134.884V147.818H136.351V151.607H136.445C136.624 151.196 136.898 150.869 137.265 150.627C137.633 150.385 138.114 150.264 138.707 150.264C139.231 150.264 139.688 150.372 140.079 150.587C140.474 150.803 140.779 151.124 140.994 151.552C141.213 151.976 141.322 152.506 141.322 153.143V158H139.836V153.322C139.836 152.762 139.692 152.327 139.403 152.019C139.115 151.708 138.714 151.552 138.2 151.552C137.849 151.552 137.534 151.626 137.256 151.776C136.98 151.925 136.763 152.143 136.604 152.432C136.448 152.717 136.371 153.062 136.371 153.466ZM147.99 158H146.36L150.024 147.818H151.799L155.463 158H153.832L150.953 149.668H150.874L147.99 158ZM148.264 154.013H153.554V155.305H148.264V154.013ZM159.907 158.154C159.168 158.154 158.532 157.987 157.998 157.652C157.468 157.314 157.06 156.848 156.775 156.255C156.49 155.662 156.348 154.982 156.348 154.217C156.348 153.441 156.493 152.757 156.785 152.163C157.077 151.567 157.488 151.101 158.018 150.766C158.548 150.432 159.173 150.264 159.892 150.264C160.472 150.264 160.989 150.372 161.444 150.587C161.898 150.799 162.264 151.098 162.542 151.482C162.824 151.867 162.991 152.316 163.044 152.83H161.598C161.518 152.472 161.336 152.163 161.051 151.905C160.769 151.646 160.391 151.517 159.917 151.517C159.503 151.517 159.14 151.626 158.828 151.845C158.52 152.061 158.28 152.369 158.108 152.77C157.935 153.168 157.849 153.638 157.849 154.182C157.849 154.739 157.934 155.219 158.103 155.624C158.272 156.028 158.51 156.341 158.819 156.563C159.13 156.785 159.496 156.896 159.917 156.896C160.199 156.896 160.454 156.845 160.683 156.742C160.915 156.636 161.109 156.485 161.265 156.29C161.424 156.094 161.535 155.859 161.598 155.584H163.044C162.991 156.078 162.831 156.518 162.562 156.906C162.294 157.294 161.934 157.599 161.483 157.821C161.036 158.043 160.511 158.154 159.907 158.154ZM167.851 158.154C167.112 158.154 166.475 157.987 165.942 157.652C165.411 157.314 165.004 156.848 164.719 156.255C164.434 155.662 164.291 154.982 164.291 154.217C164.291 153.441 164.437 152.757 164.729 152.163C165.02 151.567 165.431 151.101 165.961 150.766C166.492 150.432 167.117 150.264 167.836 150.264C168.416 150.264 168.933 150.372 169.387 150.587C169.841 150.799 170.207 151.098 170.486 151.482C170.767 151.867 170.935 152.316 170.988 152.83H169.541C169.461 152.472 169.279 152.163 168.994 151.905C168.712 151.646 168.335 151.517 167.861 151.517C167.446 151.517 167.083 151.626 166.772 151.845C166.464 152.061 166.223 152.369 166.051 152.77C165.879 153.168 165.792 153.638 165.792 154.182C165.792 154.739 165.877 155.219 166.046 155.624C166.215 156.028 166.454 156.341 166.762 156.563C167.073 156.785 167.44 156.896 167.861 156.896C168.142 156.896 168.398 156.845 168.626 156.742C168.858 156.636 169.052 156.485 169.208 156.29C169.367 156.094 169.478 155.859 169.541 155.584H170.988C170.935 156.078 170.774 156.518 170.506 156.906C170.237 157.294 169.877 157.599 169.427 157.821C168.979 158.043 168.454 158.154 167.851 158.154ZM175.794 158.154C175.078 158.154 174.453 157.99 173.92 157.662C173.386 157.334 172.972 156.875 172.677 156.285C172.382 155.695 172.234 155.005 172.234 154.217C172.234 153.424 172.382 152.732 172.677 152.138C172.972 151.545 173.386 151.085 173.92 150.756C174.453 150.428 175.078 150.264 175.794 150.264C176.51 150.264 177.135 150.428 177.668 150.756C178.202 151.085 178.616 151.545 178.911 152.138C179.206 152.732 179.354 153.424 179.354 154.217C179.354 155.005 179.206 155.695 178.911 156.285C178.616 156.875 178.202 157.334 177.668 157.662C177.135 157.99 176.51 158.154 175.794 158.154ZM175.799 156.906C176.263 156.906 176.647 156.784 176.952 156.538C177.257 156.293 177.483 155.967 177.629 155.559C177.778 155.151 177.852 154.702 177.852 154.212C177.852 153.724 177.778 153.277 177.629 152.869C177.483 152.458 177.257 152.129 176.952 151.88C176.647 151.631 176.263 151.507 175.799 151.507C175.332 151.507 174.944 151.631 174.636 151.88C174.331 152.129 174.104 152.458 173.955 152.869C173.809 153.277 173.736 153.724 173.736 154.212C173.736 154.702 173.809 155.151 173.955 155.559C174.104 155.967 174.331 156.293 174.636 156.538C174.944 156.784 175.332 156.906 175.799 156.906ZM185.85 154.833V150.364H187.342V158H185.88V156.678H185.801C185.625 157.085 185.343 157.425 184.955 157.697C184.571 157.965 184.092 158.099 183.519 158.099C183.028 158.099 182.594 157.992 182.216 157.776C181.842 157.558 181.547 157.234 181.331 156.807C181.119 156.379 181.013 155.851 181.013 155.221V150.364H182.499V155.042C182.499 155.562 182.644 155.977 182.932 156.285C183.22 156.593 183.595 156.747 184.056 156.747C184.334 156.747 184.611 156.678 184.886 156.538C185.164 156.399 185.395 156.189 185.577 155.907C185.762 155.625 185.854 155.267 185.85 154.833ZM190.826 153.466V158H189.339V150.364H190.766V151.607H190.86C191.036 151.202 191.311 150.877 191.686 150.632C192.064 150.387 192.539 150.264 193.113 150.264C193.633 150.264 194.089 150.374 194.48 150.592C194.871 150.808 195.174 151.129 195.39 151.557C195.605 151.984 195.713 152.513 195.713 153.143V158H194.226V153.322C194.226 152.768 194.082 152.336 193.794 152.024C193.505 151.709 193.109 151.552 192.605 151.552C192.261 151.552 191.954 151.626 191.686 151.776C191.421 151.925 191.21 152.143 191.054 152.432C190.902 152.717 190.826 153.062 190.826 153.466ZM201.271 150.364V151.557H197.1V150.364H201.271ZM198.218 148.534H199.705V155.758C199.705 156.046 199.748 156.263 199.834 156.409C199.92 156.552 200.031 156.649 200.167 156.702C200.306 156.752 200.457 156.777 200.62 156.777C200.739 156.777 200.843 156.769 200.933 156.752C201.022 156.736 201.092 156.722 201.142 156.712L201.41 157.94C201.324 157.973 201.201 158.007 201.042 158.04C200.883 158.076 200.684 158.096 200.446 158.099C200.055 158.106 199.69 158.036 199.352 157.891C199.014 157.745 198.74 157.519 198.532 157.214C198.323 156.91 198.218 156.527 198.218 156.066V148.534Z" fill="#344054"/>
<path d="M102.523 173.545L102.602 171.358L100.753 172.531L100.276 171.696L102.224 170.682L100.276 169.668L100.753 168.832L102.602 170.006L102.523 167.818H103.477L103.398 170.006L105.247 168.832L105.724 169.668L103.776 170.682L105.724 171.696L105.247 172.531L103.398 171.358L103.477 173.545H102.523ZM109.523 173.545L109.602 171.358L107.753 172.531L107.276 171.696L109.224 170.682L107.276 169.668L107.753 168.832L109.602 170.006L109.523 167.818H110.477L110.398 170.006L112.247 168.832L112.724 169.668L110.776 170.682L112.724 171.696L112.247 172.531L110.398 171.358L110.477 173.545H109.523ZM116.523 173.545L116.602 171.358L114.753 172.531L114.276 171.696L116.224 170.682L114.276 169.668L114.753 168.832L116.602 170.006L116.523 167.818H117.477L117.398 170.006L119.247 168.832L119.724 169.668L117.776 170.682L119.724 171.696L119.247 172.531L117.398 171.358L117.477 173.545H116.523ZM123.523 173.545L123.602 171.358L121.753 172.531L121.276 171.696L123.224 170.682L121.276 169.668L121.753 168.832L123.602 170.006L123.523 167.818H124.477L124.398 170.006L126.247 168.832L126.724 169.668L124.776 170.682L126.724 171.696L126.247 172.531L124.398 171.358L124.477 173.545H123.523ZM130.523 173.545L130.602 171.358L128.753 172.531L128.276 171.696L130.224 170.682L128.276 169.668L128.753 168.832L130.602 170.006L130.523 167.818H131.477L131.398 170.006L133.247 168.832L133.724 169.668L131.776 170.682L133.724 171.696L133.247 172.531L131.398 171.358L131.477 173.545H130.523ZM137.523 173.545L137.602 171.358L135.753 172.531L135.276 171.696L137.224 170.682L135.276 169.668L135.753 168.832L137.602 170.006L137.523 167.818H138.477L138.398 170.006L140.247 168.832L140.724 169.668L138.776 170.682L140.724 171.696L140.247 172.531L138.398 171.358L138.477 173.545H137.523ZM141.673 175.912V174.898L146.147 167.818H146.883V169.389H146.386L143.005 174.739V174.818H149.031V175.912H141.673ZM146.465 178V175.604V175.131V167.818H147.639V178H146.465ZM154.334 178.139C153.678 178.139 153.093 178.027 152.579 177.801C152.069 177.576 151.663 177.263 151.361 176.862C151.063 176.457 150.9 175.988 150.874 175.455H152.127C152.153 175.783 152.266 176.066 152.465 176.305C152.664 176.54 152.924 176.722 153.245 176.852C153.567 176.981 153.923 177.045 154.314 177.045C154.752 177.045 155.14 176.969 155.478 176.817C155.816 176.664 156.081 176.452 156.273 176.18C156.465 175.909 156.561 175.594 156.561 175.236C156.561 174.861 156.469 174.531 156.283 174.246C156.097 173.958 155.826 173.733 155.468 173.57C155.11 173.408 154.672 173.327 154.155 173.327H153.34V172.233H154.155C154.56 172.233 154.914 172.16 155.219 172.014C155.527 171.868 155.768 171.663 155.94 171.398C156.116 171.133 156.203 170.821 156.203 170.463C156.203 170.118 156.127 169.818 155.975 169.563C155.822 169.308 155.607 169.109 155.328 168.967C155.053 168.824 154.729 168.753 154.354 168.753C154.003 168.753 153.671 168.817 153.36 168.947C153.051 169.073 152.8 169.257 152.604 169.499C152.408 169.737 152.302 170.026 152.286 170.364H151.093C151.113 169.83 151.273 169.363 151.575 168.962C151.877 168.557 152.271 168.242 152.758 168.017C153.249 167.792 153.787 167.679 154.374 167.679C155.004 167.679 155.544 167.807 155.995 168.062C156.445 168.314 156.792 168.647 157.034 169.061C157.276 169.475 157.397 169.923 157.397 170.403C157.397 170.977 157.246 171.466 156.944 171.87C156.646 172.274 156.24 172.554 155.726 172.71V172.79C156.369 172.896 156.871 173.169 157.233 173.61C157.594 174.048 157.775 174.589 157.775 175.236C157.775 175.789 157.624 176.286 157.322 176.727C157.024 177.165 156.616 177.509 156.099 177.761C155.582 178.013 154.994 178.139 154.334 178.139ZM162.99 178.139C162.406 178.139 161.881 178.023 161.414 177.791C160.946 177.559 160.572 177.241 160.29 176.837C160.008 176.432 159.854 175.972 159.828 175.455H161.021C161.067 175.915 161.276 176.296 161.647 176.598C162.022 176.896 162.469 177.045 162.99 177.045C163.407 177.045 163.779 176.948 164.103 176.752C164.431 176.557 164.688 176.288 164.874 175.947C165.063 175.602 165.157 175.213 165.157 174.778C165.157 174.334 165.06 173.938 164.864 173.59C164.672 173.239 164.407 172.962 164.069 172.76C163.73 172.558 163.344 172.455 162.91 172.452C162.599 172.448 162.279 172.496 161.951 172.596C161.623 172.692 161.352 172.816 161.14 172.969L159.987 172.83L160.603 167.818H165.893V168.912H161.637L161.279 171.915H161.339C161.548 171.749 161.81 171.612 162.125 171.502C162.44 171.393 162.768 171.338 163.109 171.338C163.732 171.338 164.287 171.487 164.775 171.786C165.265 172.08 165.65 172.485 165.928 172.999C166.21 173.512 166.35 174.099 166.35 174.759C166.35 175.408 166.205 175.988 165.913 176.499C165.625 177.006 165.227 177.407 164.72 177.702C164.213 177.993 163.636 178.139 162.99 178.139ZM171.706 178.139C171.289 178.133 170.871 178.053 170.453 177.901C170.036 177.748 169.655 177.491 169.31 177.13C168.965 176.765 168.688 176.273 168.48 175.653C168.271 175.03 168.166 174.248 168.166 173.307C168.166 172.405 168.251 171.607 168.42 170.911C168.589 170.211 168.834 169.623 169.156 169.146C169.477 168.665 169.865 168.3 170.319 168.052C170.776 167.803 171.292 167.679 171.865 167.679C172.435 167.679 172.942 167.793 173.387 168.022C173.834 168.247 174.199 168.562 174.48 168.967C174.762 169.371 174.944 169.837 175.027 170.364H173.814C173.701 169.906 173.483 169.527 173.158 169.225C172.833 168.924 172.402 168.773 171.865 168.773C171.076 168.773 170.455 169.116 170.001 169.802C169.55 170.488 169.323 171.451 169.32 172.69H169.399C169.585 172.409 169.805 172.168 170.061 171.969C170.319 171.767 170.604 171.612 170.916 171.502C171.227 171.393 171.557 171.338 171.905 171.338C172.488 171.338 173.022 171.484 173.506 171.776C173.99 172.064 174.378 172.463 174.669 172.974C174.961 173.481 175.107 174.062 175.107 174.719C175.107 175.348 174.966 175.925 174.684 176.449C174.402 176.969 174.006 177.384 173.496 177.692C172.989 177.997 172.392 178.146 171.706 178.139ZM171.706 177.045C172.124 177.045 172.498 176.941 172.83 176.732C173.164 176.523 173.428 176.243 173.62 175.892C173.816 175.541 173.914 175.15 173.914 174.719C173.914 174.298 173.819 173.915 173.63 173.57C173.445 173.222 173.188 172.946 172.86 172.74C172.535 172.535 172.164 172.432 171.746 172.432C171.431 172.432 171.138 172.495 170.866 172.621C170.594 172.743 170.356 172.912 170.15 173.128C169.948 173.343 169.789 173.59 169.673 173.869C169.557 174.144 169.499 174.434 169.499 174.739C169.499 175.143 169.593 175.521 169.782 175.872C169.974 176.223 170.236 176.507 170.568 176.722C170.902 176.938 171.282 177.045 171.706 177.045Z" fill="#475467"/>
<rect x="585" y="143.5" width="15" height="15" rx="7.5" fill="white"/>
<rect x="585" y="143.5" width="15" height="15" rx="7.5" stroke="#D0D5DD"/>
</svg>
