<svg width="440" height="310" viewBox="0 0 440 310" fill="none" xmlns="http://www.w3.org/2000/svg">
<g filter="url(#filter0_dd_1_1111)">
<g clip-path="url(#clip0_1_1111)">
<rect x="20" width="400" height="269.305" rx="12" fill="white"/>
<rect x="157" y="27" width="126" height="126" rx="63" fill="#FFE8DE"/>
<path d="M157.344 127.171L205.731 68.8076L234.147 112.599L162.283 135.591C157.568 133.346 156.895 132.223 157.344 127.171Z" fill="#E36B37"/>
<path d="M234.577 111.999C233.574 112.65 232.226 112.729 230.602 112.251C228.979 111.773 227.117 110.747 225.132 109.246C221.164 106.245 216.753 101.384 212.85 95.3703C208.948 89.3561 206.305 83.3475 205.182 78.5012C204.62 76.0768 204.442 73.9582 204.666 72.2814C204.891 70.6034 205.512 69.4043 206.515 68.7535C207.017 68.428 207.524 68.2964 208.047 68.3277C208.575 68.3593 209.135 68.558 209.735 68.9226C210.941 69.6556 212.255 71.0273 213.697 72.893C215.715 75.5042 217.943 79.0232 220.444 82.9746C221.516 84.6677 222.638 86.4403 223.816 88.2548C224.993 90.0693 226.155 91.8162 227.264 93.4848C229.854 97.3789 232.16 100.847 233.723 103.754C234.839 105.832 235.556 107.59 235.735 108.99C235.823 109.686 235.776 110.279 235.59 110.774C235.406 111.264 235.079 111.674 234.577 111.999Z" fill="white" stroke="black" stroke-width="0.538019"/>
<path d="M220.957 97.2289L217.462 87.2606C227.956 93.13 233.766 91.1496 240.586 81.6161L242.25 91.04C235.207 97.8365 230.04 98.0547 220.957 97.2289Z" fill="#E36B37"/>
<path d="M248.435 112.331V103.271C252.929 104.997 256.476 105.87 259.988 105.871C263.495 105.872 266.945 105.002 271.247 103.278V112.324C266.337 114.017 263.036 114.922 259.769 114.958C256.504 114.994 253.249 114.162 248.435 112.331Z" fill="white" stroke="black" stroke-width="0.538019"/>
<path d="M250.009 77.1246L244.794 69.7168C249.462 68.5403 252.865 67.2129 255.737 65.192C258.606 63.1734 260.927 60.476 263.452 56.5896L268.659 63.9869C265.619 68.1979 263.44 70.8378 260.789 72.7481C258.14 74.6567 255 75.8507 250.009 77.1246Z" fill="#0B8D00" stroke="black" stroke-width="0.538019"/>
<path d="M269.72 96.5935L263.433 88.735C267.323 93.5302 275.434 93.8213 283.156 92.5615C286.355 90.8559 289.451 88.8818 291.836 87.1633L297 88.735C293.56 90.1049 288.45 91.6977 283.156 92.5615C278.161 95.2238 272.913 97.2321 269.72 96.5935Z" fill="#E36B37"/>
<path d="M226.266 38.0083L236.435 41.0596C229.889 47.2679 226.252 52.5264 227.354 63.1929L218.71 58.9748C217.349 49.2325 220.226 44.9031 226.266 38.0083Z" fill="#E36B37"/>
<path d="M262.415 26.3313L272.584 29.3825C266.038 35.5909 262.402 40.8493 263.503 51.5159L254.859 47.2977C253.498 37.5555 256.375 33.2261 262.415 26.3313Z" fill="url(#paint0_linear_1_1111)"/>
<rect width="400" height="116" transform="translate(20 153.305)" fill="white"/>
<rect width="400" height="96" transform="translate(20 153.305)" fill="white"/>
<path d="M172.499 187.202V185.214H182.944V187.202H178.898V198.305H176.545V187.202H172.499ZM187.169 192.552V198.305H184.855V185.214H187.118V190.155H187.233C187.463 189.601 187.819 189.164 188.3 188.845C188.786 188.521 189.404 188.359 190.154 188.359C190.836 188.359 191.43 188.502 191.937 188.787C192.444 189.073 192.836 189.49 193.113 190.04C193.395 190.59 193.535 191.261 193.535 192.054V198.305H191.221V192.411C191.221 191.751 191.051 191.237 190.71 190.871C190.373 190.5 189.9 190.315 189.291 190.315C188.882 190.315 188.515 190.404 188.192 190.583C187.872 190.758 187.621 191.012 187.437 191.344C187.258 191.676 187.169 192.079 187.169 192.552ZM198.719 198.503C198.097 198.503 197.537 198.392 197.038 198.171C196.544 197.945 196.152 197.612 195.862 197.174C195.577 196.735 195.434 196.193 195.434 195.55C195.434 194.996 195.536 194.538 195.741 194.176C195.945 193.813 196.224 193.524 196.578 193.306C196.932 193.089 197.33 192.925 197.773 192.814C198.221 192.699 198.683 192.616 199.16 192.565C199.736 192.505 200.202 192.452 200.56 192.405C200.918 192.354 201.178 192.277 201.34 192.175C201.506 192.068 201.589 191.904 201.589 191.683V191.644C201.589 191.163 201.447 190.79 201.161 190.526C200.876 190.262 200.464 190.13 199.927 190.13C199.361 190.13 198.911 190.253 198.579 190.5C198.251 190.747 198.029 191.039 197.914 191.376L195.753 191.069C195.924 190.473 196.205 189.974 196.597 189.573C196.989 189.169 197.469 188.866 198.035 188.666C198.602 188.461 199.229 188.359 199.915 188.359C200.388 188.359 200.858 188.414 201.327 188.525C201.796 188.636 202.224 188.819 202.612 189.075C203 189.326 203.311 189.669 203.545 190.104C203.784 190.539 203.903 191.082 203.903 191.734V198.305H201.679V196.956H201.602C201.461 197.229 201.263 197.485 201.008 197.723C200.756 197.958 200.439 198.147 200.055 198.292C199.676 198.433 199.231 198.503 198.719 198.503ZM199.32 196.803C199.785 196.803 200.187 196.711 200.528 196.528C200.869 196.34 201.131 196.093 201.314 195.786C201.502 195.48 201.596 195.145 201.596 194.783V193.626C201.523 193.686 201.4 193.741 201.225 193.792C201.055 193.843 200.863 193.888 200.65 193.926C200.437 193.965 200.226 193.999 200.017 194.029C199.808 194.058 199.627 194.084 199.474 194.105C199.128 194.152 198.819 194.229 198.547 194.335C198.274 194.442 198.059 194.591 197.901 194.783C197.743 194.97 197.665 195.213 197.665 195.512C197.665 195.938 197.82 196.259 198.131 196.477C198.442 196.694 198.839 196.803 199.32 196.803ZM208.544 192.552V198.305H206.23V188.487H208.442V190.155H208.557C208.782 189.605 209.143 189.169 209.637 188.845C210.135 188.521 210.751 188.359 211.484 188.359C212.162 188.359 212.752 188.504 213.255 188.794C213.762 189.083 214.154 189.503 214.431 190.053C214.712 190.603 214.851 191.269 214.846 192.054V198.305H212.532V192.411C212.532 191.755 212.362 191.242 212.021 190.871C211.684 190.5 211.218 190.315 210.621 190.315C210.216 190.315 209.856 190.404 209.541 190.583C209.23 190.758 208.985 191.012 208.806 191.344C208.631 191.676 208.544 192.079 208.544 192.552ZM219.308 195.224L219.302 192.431H219.672L223.201 188.487H225.905L221.564 193.319H221.085L219.308 195.224ZM217.199 198.305V185.214H219.513V198.305H217.199ZM223.361 198.305L220.165 193.837L221.724 192.207L226.128 198.305H223.361ZM233.35 201.987C233.034 201.987 232.743 201.961 232.474 201.91C232.21 201.863 231.999 201.808 231.841 201.744L232.378 199.941C232.715 200.039 233.015 200.086 233.279 200.082C233.544 200.078 233.776 199.995 233.976 199.833C234.181 199.675 234.353 199.411 234.494 199.04L234.692 198.509L231.132 188.487H233.586L235.849 195.902H235.951L238.221 188.487H240.681L236.75 199.494C236.567 200.014 236.324 200.459 236.022 200.83C235.719 201.205 235.348 201.49 234.909 201.686C234.475 201.887 233.955 201.987 233.35 201.987ZM246.231 198.497C245.273 198.497 244.442 198.286 243.738 197.864C243.035 197.442 242.49 196.852 242.102 196.093C241.719 195.335 241.527 194.448 241.527 193.434C241.527 192.42 241.719 191.531 242.102 190.769C242.49 190.006 243.035 189.414 243.738 188.992C244.442 188.57 245.273 188.359 246.231 188.359C247.19 188.359 248.021 188.57 248.724 188.992C249.427 189.414 249.971 190.006 250.354 190.769C250.742 191.531 250.936 192.42 250.936 193.434C250.936 194.448 250.742 195.335 250.354 196.093C249.971 196.852 249.427 197.442 248.724 197.864C248.021 198.286 247.19 198.497 246.231 198.497ZM246.244 196.643C246.764 196.643 247.199 196.5 247.548 196.215C247.898 195.925 248.157 195.537 248.328 195.051C248.503 194.566 248.59 194.024 248.59 193.428C248.59 192.827 248.503 192.284 248.328 191.798C248.157 191.308 247.898 190.918 247.548 190.628C247.199 190.338 246.764 190.193 246.244 190.193C245.711 190.193 245.268 190.338 244.915 190.628C244.565 190.918 244.303 191.308 244.128 191.798C243.958 192.284 243.873 192.827 243.873 193.428C243.873 194.024 243.958 194.566 244.128 195.051C244.303 195.537 244.565 195.925 244.915 196.215C245.268 196.5 245.711 196.643 246.244 196.643ZM259.158 194.176V188.487H261.472V198.305H259.228V196.56H259.126C258.904 197.11 258.54 197.559 258.033 197.909C257.53 198.258 256.91 198.433 256.173 198.433C255.529 198.433 254.96 198.29 254.466 198.005C253.976 197.715 253.592 197.295 253.315 196.745C253.038 196.191 252.9 195.522 252.9 194.738V188.487H255.214V194.38C255.214 195.002 255.384 195.497 255.725 195.863C256.066 196.23 256.513 196.413 257.067 196.413C257.408 196.413 257.739 196.33 258.058 196.164C258.378 195.997 258.64 195.75 258.844 195.422C259.053 195.09 259.158 194.674 259.158 194.176ZM266.683 185.214L266.472 194.457H264.414L264.209 185.214H266.683ZM265.443 198.446C265.055 198.446 264.722 198.309 264.445 198.036C264.173 197.764 264.036 197.431 264.036 197.039C264.036 196.656 264.173 196.328 264.445 196.055C264.722 195.782 265.055 195.646 265.443 195.646C265.822 195.646 266.15 195.782 266.427 196.055C266.708 196.328 266.849 196.656 266.849 197.039C266.849 197.299 266.783 197.536 266.651 197.749C266.523 197.962 266.352 198.132 266.139 198.26C265.931 198.384 265.698 198.446 265.443 198.446Z" fill="#101828"/>
<path d="M55.431 224.305L52.6469 214.123H53.8998L56.0276 222.416H56.127L58.2947 214.123H59.6867L61.8543 222.416H61.9537L64.0816 214.123H65.3344L62.5503 224.305H61.2776L59.0305 216.191H58.9509L56.7037 224.305H55.431ZM69.2023 224.464C68.4665 224.464 67.8318 224.302 67.2982 223.977C66.7679 223.649 66.3586 223.191 66.0702 222.605C65.7852 222.015 65.6427 221.329 65.6427 220.546C65.6427 219.764 65.7852 219.075 66.0702 218.478C66.3586 217.878 66.7596 217.411 67.2733 217.076C67.7904 216.738 68.3936 216.569 69.083 216.569C69.4807 216.569 69.8735 216.635 70.2613 216.768C70.6491 216.901 71.002 217.116 71.3202 217.414C71.6384 217.709 71.892 218.1 72.0809 218.588C72.2698 219.075 72.3643 219.675 72.3643 220.387V220.884H66.4779V219.87H71.1711C71.1711 219.439 71.0849 219.055 70.9126 218.717C70.7435 218.379 70.5016 218.112 70.1867 217.916C69.8751 217.721 69.5073 217.623 69.083 217.623C68.6157 217.623 68.2113 217.739 67.8699 217.971C67.5319 218.2 67.2717 218.498 67.0894 218.866C66.9071 219.234 66.816 219.628 66.816 220.049V220.725C66.816 221.302 66.9154 221.791 67.1143 222.192C67.3164 222.59 67.5965 222.893 67.9545 223.102C68.3124 223.307 68.7284 223.41 69.2023 223.41C69.5106 223.41 69.789 223.367 70.0376 223.281C70.2894 223.191 70.5065 223.059 70.6888 222.883C70.8711 222.704 71.012 222.482 71.1114 222.217L72.2449 222.535C72.1256 222.92 71.9251 223.258 71.6434 223.549C71.3617 223.838 71.0136 224.063 70.5993 224.225C70.185 224.384 69.7194 224.464 69.2023 224.464ZM79.2599 219.711V224.305H78.0866V214.123H79.2599V217.862H79.3593C79.5383 217.467 79.8067 217.154 80.1647 216.922C80.526 216.687 81.0065 216.569 81.6064 216.569C82.1268 216.569 82.5825 216.674 82.9736 216.882C83.3647 217.088 83.668 217.404 83.8834 217.832C84.1022 218.256 84.2116 218.796 84.2116 219.453V224.305H83.0383V219.532C83.0383 218.926 82.8808 218.457 82.566 218.125C82.2544 217.79 81.8219 217.623 81.2684 217.623C80.8839 217.623 80.5392 217.704 80.2343 217.867C79.9327 218.029 79.694 218.266 79.5184 218.578C79.346 218.889 79.2599 219.267 79.2599 219.711ZM88.6052 224.484C88.1213 224.484 87.6821 224.393 87.2877 224.21C86.8933 224.025 86.5801 223.758 86.3481 223.41C86.1161 223.059 86.0001 222.634 86.0001 222.137C86.0001 221.7 86.0863 221.345 86.2586 221.073C86.431 220.798 86.6613 220.583 86.9497 220.427C87.238 220.271 87.5562 220.155 87.9042 220.079C88.2555 220 88.6085 219.937 88.9632 219.89C89.4272 219.83 89.8034 219.786 90.0917 219.756C90.3834 219.723 90.5955 219.668 90.7281 219.592C90.864 219.516 90.9319 219.383 90.9319 219.194V219.154C90.9319 218.664 90.7977 218.283 90.5292 218.011C90.2641 217.739 89.8614 217.603 89.3211 217.603C88.761 217.603 88.3218 217.726 88.0036 217.971C87.6855 218.216 87.4617 218.478 87.3325 218.757L86.2188 218.359C86.4177 217.895 86.6829 217.534 87.0143 217.275C87.349 217.013 87.7136 216.831 88.108 216.728C88.5058 216.622 88.8969 216.569 89.2813 216.569C89.5266 216.569 89.8083 216.599 90.1265 216.659C90.448 216.715 90.7579 216.833 91.0562 217.012C91.3578 217.191 91.608 217.461 91.8069 217.822C92.0058 218.183 92.1052 218.667 92.1052 219.274V224.305H90.9319V223.271H90.8722C90.7927 223.437 90.6601 223.614 90.4745 223.803C90.2889 223.992 90.042 224.152 89.7338 224.285C89.4255 224.418 89.0493 224.484 88.6052 224.484ZM88.7842 223.43C89.2482 223.43 89.6393 223.339 89.9575 223.156C90.279 222.974 90.5209 222.739 90.6833 222.451C90.849 222.162 90.9319 221.859 90.9319 221.541V220.467C90.8822 220.527 90.7728 220.581 90.6038 220.631C90.4381 220.677 90.2458 220.719 90.0271 220.755C89.8116 220.788 89.6012 220.818 89.3957 220.845C89.1935 220.868 89.0294 220.888 88.9035 220.904C88.5986 220.944 88.3135 221.009 88.0484 221.098C87.7865 221.184 87.5744 221.315 87.412 221.491C87.2529 221.663 87.1734 221.899 87.1734 222.197C87.1734 222.605 87.3242 222.913 87.6258 223.122C87.9307 223.327 88.3169 223.43 88.7842 223.43ZM100.218 216.669L97.3937 224.305H96.2006L93.3767 216.669H94.6494L96.7574 222.754H96.8369L98.9449 216.669H100.218ZM104.695 224.464C103.959 224.464 103.324 224.302 102.79 223.977C102.26 223.649 101.851 223.191 101.562 222.605C101.277 222.015 101.135 221.329 101.135 220.546C101.135 219.764 101.277 219.075 101.562 218.478C101.851 217.878 102.252 217.411 102.766 217.076C103.283 216.738 103.886 216.569 104.575 216.569C104.973 216.569 105.366 216.635 105.753 216.768C106.141 216.901 106.494 217.116 106.812 217.414C107.131 217.709 107.384 218.1 107.573 218.588C107.762 219.075 107.856 219.675 107.856 220.387V220.884H101.97V219.87H106.663C106.663 219.439 106.577 219.055 106.405 218.717C106.236 218.379 105.994 218.112 105.679 217.916C105.367 217.721 104.999 217.623 104.575 217.623C104.108 217.623 103.704 217.739 103.362 217.971C103.024 218.2 102.764 218.498 102.582 218.866C102.399 219.234 102.308 219.628 102.308 220.049V220.725C102.308 221.302 102.408 221.791 102.606 222.192C102.809 222.59 103.089 222.893 103.447 223.102C103.805 223.307 104.221 223.41 104.695 223.41C105.003 223.41 105.281 223.367 105.53 223.281C105.782 223.191 105.999 223.059 106.181 222.883C106.363 222.704 106.504 222.482 106.604 222.217L107.737 222.535C107.618 222.92 107.417 223.258 107.136 223.549C106.854 223.838 106.506 224.063 106.092 224.225C105.677 224.384 105.212 224.464 104.695 224.464ZM113.579 224.305V216.669H114.712V217.822H114.792C114.931 217.444 115.183 217.138 115.547 216.902C115.912 216.667 116.323 216.549 116.78 216.549C116.867 216.549 116.974 216.551 117.104 216.554C117.233 216.558 117.331 216.563 117.397 216.569V217.762C117.357 217.752 117.266 217.737 117.123 217.718C116.984 217.694 116.837 217.683 116.681 217.683C116.31 217.683 115.978 217.761 115.687 217.916C115.398 218.069 115.17 218.281 115.001 218.553C114.835 218.821 114.752 219.128 114.752 219.473V224.305H113.579ZM121.757 224.464C121.021 224.464 120.387 224.302 119.853 223.977C119.323 223.649 118.913 223.191 118.625 222.605C118.34 222.015 118.197 221.329 118.197 220.546C118.197 219.764 118.34 219.075 118.625 218.478C118.913 217.878 119.314 217.411 119.828 217.076C120.345 216.738 120.948 216.569 121.638 216.569C122.035 216.569 122.428 216.635 122.816 216.768C123.204 216.901 123.557 217.116 123.875 217.414C124.193 217.709 124.447 218.1 124.636 218.588C124.824 219.075 124.919 219.675 124.919 220.387V220.884H119.033V219.87H123.726C123.726 219.439 123.64 219.055 123.467 218.717C123.298 218.379 123.056 218.112 122.741 217.916C122.43 217.721 122.062 217.623 121.638 217.623C121.17 217.623 120.766 217.739 120.425 217.971C120.087 218.2 119.826 218.498 119.644 218.866C119.462 219.234 119.371 219.628 119.371 220.049V220.725C119.371 221.302 119.47 221.791 119.669 222.192C119.871 222.59 120.151 222.893 120.509 223.102C120.867 223.307 121.283 223.41 121.757 223.41C122.065 223.41 122.344 223.367 122.592 223.281C122.844 223.191 123.061 223.059 123.244 222.883C123.426 222.704 123.567 222.482 123.666 222.217L124.8 222.535C124.68 222.92 124.48 223.258 124.198 223.549C123.916 223.838 123.568 224.063 123.154 224.225C122.74 224.384 122.274 224.464 121.757 224.464ZM129.806 224.464C129.09 224.464 128.474 224.295 127.957 223.957C127.44 223.619 127.042 223.153 126.763 222.56C126.485 221.967 126.346 221.289 126.346 220.527C126.346 219.751 126.488 219.067 126.773 218.473C127.062 217.877 127.463 217.411 127.976 217.076C128.494 216.738 129.097 216.569 129.786 216.569C130.323 216.569 130.807 216.669 131.238 216.867C131.669 217.066 132.022 217.345 132.297 217.703C132.572 218.061 132.743 218.478 132.809 218.955H131.636C131.546 218.607 131.347 218.299 131.039 218.031C130.734 217.759 130.323 217.623 129.806 217.623C129.349 217.623 128.948 217.742 128.603 217.981C128.262 218.216 127.995 218.549 127.802 218.98C127.614 219.408 127.519 219.91 127.519 220.487C127.519 221.077 127.612 221.59 127.797 222.028C127.986 222.465 128.252 222.805 128.593 223.047C128.938 223.289 129.342 223.41 129.806 223.41C130.111 223.41 130.388 223.357 130.636 223.251C130.885 223.145 131.095 222.992 131.268 222.794C131.44 222.595 131.563 222.356 131.636 222.078H132.809C132.743 222.528 132.579 222.934 132.317 223.296C132.058 223.654 131.715 223.939 131.288 224.151C130.863 224.36 130.369 224.464 129.806 224.464ZM137.726 224.464C136.99 224.464 136.355 224.302 135.822 223.977C135.291 223.649 134.882 223.191 134.594 222.605C134.309 222.015 134.166 221.329 134.166 220.546C134.166 219.764 134.309 219.075 134.594 218.478C134.882 217.878 135.283 217.411 135.797 217.076C136.314 216.738 136.917 216.569 137.606 216.569C138.004 216.569 138.397 216.635 138.785 216.768C139.172 216.901 139.525 217.116 139.844 217.414C140.162 217.709 140.415 218.1 140.604 218.588C140.793 219.075 140.888 219.675 140.888 220.387V220.884H135.001V219.87H139.695C139.695 219.439 139.608 219.055 139.436 218.717C139.267 218.379 139.025 218.112 138.71 217.916C138.399 217.721 138.031 217.623 137.606 217.623C137.139 217.623 136.735 217.739 136.393 217.971C136.055 218.2 135.795 218.498 135.613 218.866C135.431 219.234 135.339 219.628 135.339 220.049V220.725C135.339 221.302 135.439 221.791 135.638 222.192C135.84 222.59 136.12 222.893 136.478 223.102C136.836 223.307 137.252 223.41 137.726 223.41C138.034 223.41 138.312 223.367 138.561 223.281C138.813 223.191 139.03 223.059 139.212 222.883C139.395 222.704 139.535 222.482 139.635 222.217L140.768 222.535C140.649 222.92 140.449 223.258 140.167 223.549C139.885 223.838 139.537 224.063 139.123 224.225C138.708 224.384 138.243 224.464 137.726 224.464ZM142.672 224.305V216.669H143.846V224.305H142.672ZM143.269 215.396C143.04 215.396 142.843 215.318 142.677 215.162C142.515 215.006 142.434 214.819 142.434 214.6C142.434 214.382 142.515 214.194 142.677 214.039C142.843 213.883 143.04 213.805 143.269 213.805C143.498 213.805 143.693 213.883 143.856 214.039C144.021 214.194 144.104 214.382 144.104 214.6C144.104 214.819 144.021 215.006 143.856 215.162C143.693 215.318 143.498 215.396 143.269 215.396ZM152.239 216.669L149.415 224.305H148.222L145.398 216.669H146.671L148.779 222.754H148.858L150.966 216.669H152.239ZM156.716 224.464C155.98 224.464 155.345 224.302 154.812 223.977C154.282 223.649 153.872 223.191 153.584 222.605C153.299 222.015 153.156 221.329 153.156 220.546C153.156 219.764 153.299 219.075 153.584 218.478C153.872 217.878 154.273 217.411 154.787 217.076C155.304 216.738 155.907 216.569 156.597 216.569C156.994 216.569 157.387 216.635 157.775 216.768C158.163 216.901 158.516 217.116 158.834 217.414C159.152 217.709 159.406 218.1 159.595 218.588C159.783 219.075 159.878 219.675 159.878 220.387V220.884H153.992V219.87H158.685C158.685 219.439 158.599 219.055 158.426 218.717C158.257 218.379 158.015 218.112 157.7 217.916C157.389 217.721 157.021 217.623 156.597 217.623C156.129 217.623 155.725 217.739 155.384 217.971C155.046 218.2 154.785 218.498 154.603 218.866C154.421 219.234 154.33 219.628 154.33 220.049V220.725C154.33 221.302 154.429 221.791 154.628 222.192C154.83 222.59 155.11 222.893 155.468 223.102C155.826 223.307 156.242 223.41 156.716 223.41C157.024 223.41 157.303 223.367 157.551 223.281C157.803 223.191 158.02 223.059 158.203 222.883C158.385 222.704 158.526 222.482 158.625 222.217L159.759 222.535C159.639 222.92 159.439 223.258 159.157 223.549C158.875 223.838 158.527 224.063 158.113 224.225C157.699 224.384 157.233 224.464 156.716 224.464ZM164.546 224.464C163.91 224.464 163.348 224.303 162.861 223.982C162.374 223.657 161.993 223.2 161.717 222.61C161.442 222.016 161.305 221.315 161.305 220.507C161.305 219.705 161.442 219.009 161.717 218.419C161.993 217.829 162.375 217.373 162.866 217.051C163.356 216.73 163.923 216.569 164.566 216.569C165.063 216.569 165.456 216.652 165.744 216.818C166.036 216.98 166.258 217.166 166.411 217.375C166.566 217.58 166.687 217.749 166.774 217.882H166.873V214.123H168.046V224.305H166.913V223.132H166.774C166.687 223.271 166.565 223.447 166.406 223.659C166.247 223.867 166.02 224.055 165.725 224.22C165.43 224.383 165.037 224.464 164.546 224.464ZM164.705 223.41C165.176 223.41 165.574 223.287 165.899 223.042C166.223 222.794 166.47 222.451 166.639 222.013C166.808 221.572 166.893 221.063 166.893 220.487C166.893 219.917 166.81 219.418 166.644 218.99C166.479 218.559 166.233 218.225 165.908 217.986C165.584 217.744 165.183 217.623 164.705 217.623C164.208 217.623 163.794 217.751 163.462 218.006C163.134 218.258 162.887 218.601 162.722 219.035C162.559 219.466 162.478 219.95 162.478 220.487C162.478 221.03 162.561 221.524 162.727 221.968C162.896 222.409 163.144 222.76 163.472 223.022C163.804 223.281 164.215 223.41 164.705 223.41ZM175.051 227.169C174.852 227.169 174.675 227.152 174.519 227.119C174.363 227.089 174.256 227.059 174.196 227.029L174.494 225.995C174.779 226.068 175.031 226.095 175.25 226.075C175.469 226.055 175.663 225.957 175.832 225.781C176.004 225.609 176.162 225.329 176.304 224.941L176.523 224.345L173.699 216.669H174.972L177.08 222.754H177.159L179.267 216.669H180.54L177.298 225.419C177.153 225.813 176.972 226.139 176.756 226.398C176.541 226.66 176.291 226.854 176.006 226.98C175.724 227.106 175.406 227.169 175.051 227.169ZM184.917 224.464C184.228 224.464 183.623 224.3 183.103 223.972C182.586 223.644 182.181 223.185 181.89 222.595C181.601 222.005 181.457 221.315 181.457 220.527C181.457 219.731 181.601 219.037 181.89 218.443C182.181 217.85 182.586 217.389 183.103 217.061C183.623 216.733 184.228 216.569 184.917 216.569C185.607 216.569 186.21 216.733 186.727 217.061C187.247 217.389 187.652 217.85 187.94 218.443C188.232 219.037 188.378 219.731 188.378 220.527C188.378 221.315 188.232 222.005 187.94 222.595C187.652 223.185 187.247 223.644 186.727 223.972C186.21 224.3 185.607 224.464 184.917 224.464ZM184.917 223.41C185.441 223.41 185.872 223.276 186.21 223.007C186.548 222.739 186.798 222.386 186.961 221.948C187.123 221.511 187.204 221.037 187.204 220.527C187.204 220.016 187.123 219.54 186.961 219.1C186.798 218.659 186.548 218.303 186.21 218.031C185.872 217.759 185.441 217.623 184.917 217.623C184.394 217.623 183.963 217.759 183.625 218.031C183.287 218.303 183.036 218.659 182.874 219.1C182.712 219.54 182.63 220.016 182.63 220.527C182.63 221.037 182.712 221.511 182.874 221.948C183.036 222.386 183.287 222.739 183.625 223.007C183.963 223.276 184.394 223.41 184.917 223.41ZM194.981 221.183V216.669H196.154V224.305H194.981V223.012H194.902C194.723 223.4 194.444 223.73 194.066 224.002C193.688 224.27 193.211 224.404 192.634 224.404C192.157 224.404 191.733 224.3 191.362 224.091C190.991 223.879 190.699 223.561 190.487 223.137C190.275 222.709 190.169 222.17 190.169 221.521V216.669H191.342V221.441C191.342 221.998 191.498 222.442 191.809 222.774C192.124 223.105 192.525 223.271 193.012 223.271C193.304 223.271 193.601 223.196 193.902 223.047C194.207 222.898 194.462 222.669 194.668 222.361C194.877 222.053 194.981 221.66 194.981 221.183ZM205.124 224.464C204.488 224.464 203.926 224.303 203.439 223.982C202.952 223.657 202.571 223.2 202.296 222.61C202.02 222.016 201.883 221.315 201.883 220.507C201.883 219.705 202.02 219.009 202.296 218.419C202.571 217.829 202.953 217.373 203.444 217.051C203.935 216.73 204.501 216.569 205.144 216.569C205.641 216.569 206.034 216.652 206.323 216.818C206.614 216.98 206.836 217.166 206.989 217.375C207.145 217.58 207.265 217.749 207.352 217.882H207.451V214.123H208.624V224.305H207.491V223.132H207.352C207.265 223.271 207.143 223.447 206.984 223.659C206.825 223.867 206.598 224.055 206.303 224.22C206.008 224.383 205.615 224.464 205.124 224.464ZM205.283 223.41C205.754 223.41 206.152 223.287 206.477 223.042C206.801 222.794 207.048 222.451 207.217 222.013C207.386 221.572 207.471 221.063 207.471 220.487C207.471 219.917 207.388 219.418 207.222 218.99C207.057 218.559 206.811 218.225 206.487 217.986C206.162 217.744 205.761 217.623 205.283 217.623C204.786 217.623 204.372 217.751 204.041 218.006C203.712 218.258 203.466 218.601 203.3 219.035C203.137 219.466 203.056 219.95 203.056 220.487C203.056 221.03 203.139 221.524 203.305 221.968C203.474 222.409 203.722 222.76 204.051 223.022C204.382 223.281 204.793 223.41 205.283 223.41ZM214.138 224.464C213.402 224.464 212.767 224.302 212.234 223.977C211.703 223.649 211.294 223.191 211.006 222.605C210.721 222.015 210.578 221.329 210.578 220.546C210.578 219.764 210.721 219.075 211.006 218.478C211.294 217.878 211.695 217.411 212.209 217.076C212.726 216.738 213.329 216.569 214.019 216.569C214.416 216.569 214.809 216.635 215.197 216.768C215.585 216.901 215.938 217.116 216.256 217.414C216.574 217.709 216.828 218.1 217.016 218.588C217.205 219.075 217.3 219.675 217.3 220.387V220.884H211.413V219.87H216.107C216.107 219.439 216.02 219.055 215.848 218.717C215.679 218.379 215.437 218.112 215.122 217.916C214.811 217.721 214.443 217.623 214.019 217.623C213.551 217.623 213.147 217.739 212.805 217.971C212.467 218.2 212.207 218.498 212.025 218.866C211.843 219.234 211.752 219.628 211.752 220.049V220.725C211.752 221.302 211.851 221.791 212.05 222.192C212.252 222.59 212.532 222.893 212.89 223.102C213.248 223.307 213.664 223.41 214.138 223.41C214.446 223.41 214.725 223.367 214.973 223.281C215.225 223.191 215.442 223.059 215.624 222.883C215.807 222.704 215.948 222.482 216.047 222.217L217.18 222.535C217.061 222.92 216.861 223.258 216.579 223.549C216.297 223.838 215.949 224.063 215.535 224.225C215.121 224.384 214.655 224.464 214.138 224.464ZM219.085 224.305V216.669H220.218V217.862H220.318C220.477 217.454 220.734 217.138 221.088 216.912C221.443 216.683 221.869 216.569 222.366 216.569C222.87 216.569 223.289 216.683 223.624 216.912C223.962 217.138 224.225 217.454 224.414 217.862H224.494C224.689 217.467 224.983 217.154 225.374 216.922C225.765 216.687 226.234 216.569 226.781 216.569C227.463 216.569 228.022 216.783 228.456 217.21C228.89 217.635 229.107 218.296 229.107 219.194V224.305H227.934V219.194C227.934 218.631 227.78 218.228 227.472 217.986C227.163 217.744 226.801 217.623 226.383 217.623C225.846 217.623 225.43 217.786 225.135 218.11C224.84 218.432 224.693 218.839 224.693 219.333V224.305H223.499V219.075C223.499 218.641 223.359 218.291 223.077 218.026C222.795 217.757 222.432 217.623 221.988 217.623C221.683 217.623 221.398 217.704 221.133 217.867C220.871 218.029 220.659 218.255 220.497 218.543C220.337 218.828 220.258 219.158 220.258 219.532V224.305H219.085ZM234.355 224.464C233.665 224.464 233.061 224.3 232.54 223.972C232.023 223.644 231.619 223.185 231.327 222.595C231.039 222.005 230.895 221.315 230.895 220.527C230.895 219.731 231.039 219.037 231.327 218.443C231.619 217.85 232.023 217.389 232.54 217.061C233.061 216.733 233.665 216.569 234.355 216.569C235.044 216.569 235.647 216.733 236.165 217.061C236.685 217.389 237.089 217.85 237.378 218.443C237.669 219.037 237.815 219.731 237.815 220.527C237.815 221.315 237.669 222.005 237.378 222.595C237.089 223.185 236.685 223.644 236.165 223.972C235.647 224.3 235.044 224.464 234.355 224.464ZM234.355 223.41C234.879 223.41 235.309 223.276 235.647 223.007C235.986 222.739 236.236 222.386 236.398 221.948C236.561 221.511 236.642 221.037 236.642 220.527C236.642 220.016 236.561 219.54 236.398 219.1C236.236 218.659 235.986 218.303 235.647 218.031C235.309 217.759 234.879 217.623 234.355 217.623C233.831 217.623 233.4 217.759 233.062 218.031C232.724 218.303 232.474 218.659 232.312 219.1C232.149 219.54 232.068 220.016 232.068 220.527C232.068 221.037 232.149 221.511 232.312 221.948C232.474 222.386 232.724 222.739 233.062 223.007C233.4 223.276 233.831 223.41 234.355 223.41ZM243.544 224.305V216.669H244.677V217.822H244.757C244.896 217.444 245.148 217.138 245.512 216.902C245.877 216.667 246.288 216.549 246.745 216.549C246.831 216.549 246.939 216.551 247.068 216.554C247.198 216.558 247.295 216.563 247.362 216.569V217.762C247.322 217.752 247.231 217.737 247.088 217.718C246.949 217.694 246.802 217.683 246.646 217.683C246.275 217.683 245.943 217.761 245.652 217.916C245.363 218.069 245.134 218.281 244.965 218.553C244.8 218.821 244.717 219.128 244.717 219.473V224.305H243.544ZM251.722 224.464C250.986 224.464 250.351 224.302 249.818 223.977C249.287 223.649 248.878 223.191 248.59 222.605C248.305 222.015 248.162 221.329 248.162 220.546C248.162 219.764 248.305 219.075 248.59 218.478C248.878 217.878 249.279 217.411 249.793 217.076C250.31 216.738 250.913 216.569 251.603 216.569C252 216.569 252.393 216.635 252.781 216.768C253.169 216.901 253.522 217.116 253.84 217.414C254.158 217.709 254.411 218.1 254.6 218.588C254.789 219.075 254.884 219.675 254.884 220.387V220.884H248.997V219.87H253.691C253.691 219.439 253.604 219.055 253.432 218.717C253.263 218.379 253.021 218.112 252.706 217.916C252.395 217.721 252.027 217.623 251.603 217.623C251.135 217.623 250.731 217.739 250.389 217.971C250.051 218.2 249.791 218.498 249.609 218.866C249.427 219.234 249.335 219.628 249.335 220.049V220.725C249.335 221.302 249.435 221.791 249.634 222.192C249.836 222.59 250.116 222.893 250.474 223.102C250.832 223.307 251.248 223.41 251.722 223.41C252.03 223.41 252.309 223.367 252.557 223.281C252.809 223.191 253.026 223.059 253.208 222.883C253.391 222.704 253.532 222.482 253.631 222.217L254.764 222.535C254.645 222.92 254.445 223.258 254.163 223.549C253.881 223.838 253.533 224.063 253.119 224.225C252.705 224.384 252.239 224.464 251.722 224.464ZM261.879 227.169V223.132H261.779C261.693 223.271 261.571 223.447 261.411 223.659C261.252 223.867 261.025 224.055 260.73 224.22C260.435 224.383 260.043 224.464 259.552 224.464C258.916 224.464 258.354 224.303 257.867 223.982C257.38 223.657 256.998 223.2 256.723 222.61C256.448 222.016 256.311 221.315 256.311 220.507C256.311 219.705 256.448 219.009 256.723 218.419C256.998 217.829 257.381 217.373 257.872 217.051C258.362 216.73 258.929 216.569 259.572 216.569C260.069 216.569 260.462 216.652 260.75 216.818C261.042 216.98 261.264 217.166 261.416 217.375C261.572 217.58 261.693 217.749 261.779 217.882H261.919V216.669H263.052V227.169H261.879ZM259.711 223.41C260.182 223.41 260.58 223.287 260.904 223.042C261.229 222.794 261.476 222.451 261.645 222.013C261.814 221.572 261.899 221.063 261.899 220.487C261.899 219.917 261.816 219.418 261.65 218.99C261.484 218.559 261.239 218.225 260.914 217.986C260.59 217.744 260.188 217.623 259.711 217.623C259.214 217.623 258.8 217.751 258.468 218.006C258.14 218.258 257.893 218.601 257.728 219.035C257.565 219.466 257.484 219.95 257.484 220.487C257.484 221.03 257.567 221.524 257.733 221.968C257.902 222.409 258.15 222.76 258.478 223.022C258.81 223.281 259.221 223.41 259.711 223.41ZM270.012 221.183V216.669H271.186V224.305H270.012V223.012H269.933C269.754 223.4 269.475 223.73 269.098 224.002C268.72 224.27 268.242 224.404 267.666 224.404C267.188 224.404 266.764 224.3 266.393 224.091C266.022 223.879 265.73 223.561 265.518 223.137C265.306 222.709 265.2 222.17 265.2 221.521V216.669H266.373V221.441C266.373 221.998 266.529 222.442 266.84 222.774C267.155 223.105 267.556 223.271 268.044 223.271C268.335 223.271 268.632 223.196 268.934 223.047C269.238 222.898 269.494 222.669 269.699 222.361C269.908 222.053 270.012 221.66 270.012 221.183ZM276.536 224.464C275.801 224.464 275.166 224.302 274.632 223.977C274.102 223.649 273.693 223.191 273.404 222.605C273.119 222.015 272.977 221.329 272.977 220.546C272.977 219.764 273.119 219.075 273.404 218.478C273.693 217.878 274.094 217.411 274.607 217.076C275.124 216.738 275.728 216.569 276.417 216.569C276.815 216.569 277.207 216.635 277.595 216.768C277.983 216.901 278.336 217.116 278.654 217.414C278.972 217.709 279.226 218.1 279.415 218.588C279.604 219.075 279.698 219.675 279.698 220.387V220.884H273.812V219.87H278.505C278.505 219.439 278.419 219.055 278.247 218.717C278.078 218.379 277.836 218.112 277.521 217.916C277.209 217.721 276.841 217.623 276.417 217.623C275.95 217.623 275.545 217.739 275.204 217.971C274.866 218.2 274.606 218.498 274.423 218.866C274.241 219.234 274.15 219.628 274.15 220.049V220.725C274.15 221.302 274.249 221.791 274.448 222.192C274.65 222.59 274.93 222.893 275.288 223.102C275.646 223.307 276.062 223.41 276.536 223.41C276.845 223.41 277.123 223.367 277.372 223.281C277.623 223.191 277.841 223.059 278.023 222.883C278.205 222.704 278.346 222.482 278.445 222.217L279.579 222.535C279.46 222.92 279.259 223.258 278.977 223.549C278.696 223.838 278.348 224.063 277.933 224.225C277.519 224.384 277.053 224.464 276.536 224.464ZM286.892 218.379L285.838 218.677C285.772 218.501 285.674 218.331 285.545 218.165C285.419 217.996 285.247 217.857 285.028 217.747C284.809 217.638 284.529 217.583 284.188 217.583C283.72 217.583 283.331 217.691 283.019 217.906C282.711 218.119 282.557 218.389 282.557 218.717C282.557 219.009 282.663 219.239 282.875 219.408C283.087 219.577 283.419 219.718 283.869 219.83L285.003 220.109C285.686 220.275 286.194 220.528 286.529 220.87C286.864 221.208 287.031 221.643 287.031 222.177C287.031 222.615 286.905 223.006 286.653 223.35C286.405 223.695 286.057 223.967 285.609 224.166C285.162 224.365 284.642 224.464 284.048 224.464C283.27 224.464 282.625 224.295 282.114 223.957C281.604 223.619 281.281 223.125 281.145 222.475L282.259 222.197C282.365 222.608 282.565 222.916 282.86 223.122C283.158 223.327 283.548 223.43 284.028 223.43C284.575 223.43 285.01 223.314 285.331 223.082C285.656 222.847 285.818 222.565 285.818 222.237C285.818 221.972 285.725 221.75 285.54 221.571C285.354 221.388 285.069 221.252 284.685 221.163L283.412 220.865C282.713 220.699 282.199 220.442 281.871 220.094C281.546 219.743 281.384 219.304 281.384 218.777C281.384 218.346 281.505 217.964 281.747 217.633C281.992 217.302 282.325 217.041 282.746 216.853C283.17 216.664 283.651 216.569 284.188 216.569C284.943 216.569 285.537 216.735 285.967 217.066C286.402 217.398 286.71 217.835 286.892 218.379ZM292.119 216.669V217.663H288.161V216.669H292.119ZM289.315 214.839H290.488V222.117C290.488 222.449 290.536 222.697 290.632 222.863C290.731 223.026 290.857 223.135 291.01 223.191C291.166 223.244 291.33 223.271 291.502 223.271C291.631 223.271 291.737 223.264 291.82 223.251C291.903 223.234 291.969 223.221 292.019 223.211L292.258 224.265C292.178 224.295 292.067 224.325 291.925 224.355C291.782 224.388 291.601 224.404 291.383 224.404C291.051 224.404 290.726 224.333 290.408 224.191C290.093 224.048 289.832 223.831 289.623 223.539C289.417 223.248 289.315 222.88 289.315 222.436V214.839ZM294.739 224.384C294.493 224.384 294.283 224.297 294.107 224.121C293.931 223.945 293.844 223.735 293.844 223.49C293.844 223.244 293.931 223.034 294.107 222.858C294.283 222.683 294.493 222.595 294.739 222.595C294.984 222.595 295.194 222.683 295.37 222.858C295.546 223.034 295.633 223.244 295.633 223.49C295.633 223.652 295.592 223.801 295.509 223.937C295.43 224.073 295.322 224.182 295.186 224.265C295.053 224.345 294.904 224.384 294.739 224.384ZM303.685 224.305L300.901 214.123H302.154L304.282 222.416H304.381L306.549 214.123H307.941L310.108 222.416H310.208L312.335 214.123H313.588L310.804 224.305H309.532L307.284 216.191H307.205L304.958 224.305H303.685ZM317.456 224.464C316.72 224.464 316.086 224.302 315.552 223.977C315.022 223.649 314.612 223.191 314.324 222.605C314.039 222.015 313.897 221.329 313.897 220.546C313.897 219.764 314.039 219.075 314.324 218.478C314.612 217.878 315.014 217.411 315.527 217.076C316.044 216.738 316.648 216.569 317.337 216.569C317.735 216.569 318.127 216.635 318.515 216.768C318.903 216.901 319.256 217.116 319.574 217.414C319.892 217.709 320.146 218.1 320.335 218.588C320.524 219.075 320.618 219.675 320.618 220.387V220.884H314.732V219.87H319.425C319.425 219.439 319.339 219.055 319.166 218.717C318.997 218.379 318.755 218.112 318.441 217.916C318.129 217.721 317.761 217.623 317.337 217.623C316.87 217.623 316.465 217.739 316.124 217.971C315.786 218.2 315.526 218.498 315.343 218.866C315.161 219.234 315.07 219.628 315.07 220.049V220.725C315.07 221.302 315.169 221.791 315.368 222.192C315.57 222.59 315.85 222.893 316.208 223.102C316.566 223.307 316.982 223.41 317.456 223.41C317.764 223.41 318.043 223.367 318.291 223.281C318.543 223.191 318.76 223.059 318.943 222.883C319.125 222.704 319.266 222.482 319.365 222.217L320.499 222.535C320.38 222.92 320.179 223.258 319.897 223.549C319.616 223.838 319.268 224.063 318.853 224.225C318.439 224.384 317.973 224.464 317.456 224.464ZM328.071 224.305L325.744 216.669H326.977L328.627 222.515H328.707L330.338 216.669H331.59L333.201 222.495H333.281L334.931 216.669H336.164L333.838 224.305H332.684L331.014 218.438H330.894L329.224 224.305H328.071ZM337.715 224.305V216.669H338.889V224.305H337.715ZM338.312 215.396C338.083 215.396 337.886 215.318 337.72 215.162C337.558 215.006 337.477 214.819 337.477 214.6C337.477 214.382 337.558 214.194 337.72 214.039C337.886 213.883 338.083 213.805 338.312 213.805C338.541 213.805 338.736 213.883 338.899 214.039C339.064 214.194 339.147 214.382 339.147 214.6C339.147 214.819 339.064 215.006 338.899 215.162C338.736 215.318 338.541 215.396 338.312 215.396ZM342.211 214.123V224.305H341.038V214.123H342.211ZM345.533 214.123V224.305H344.36V214.123H345.533ZM351.62 224.305V216.669H352.753V217.822H352.833C352.972 217.444 353.224 217.138 353.589 216.902C353.953 216.667 354.364 216.549 354.821 216.549C354.908 216.549 355.015 216.551 355.145 216.554C355.274 216.558 355.372 216.563 355.438 216.569V217.762C355.398 217.752 355.307 217.737 355.165 217.718C355.025 217.694 354.878 217.683 354.722 217.683C354.351 217.683 354.019 217.761 353.728 217.916C353.439 218.069 353.211 218.281 353.042 218.553C352.876 218.821 352.793 219.128 352.793 219.473V224.305H351.62ZM359.798 224.464C359.062 224.464 358.428 224.302 357.894 223.977C357.364 223.649 356.954 223.191 356.666 222.605C356.381 222.015 356.238 221.329 356.238 220.546C356.238 219.764 356.381 219.075 356.666 218.478C356.954 217.878 357.355 217.411 357.869 217.076C358.386 216.738 358.989 216.569 359.679 216.569C360.076 216.569 360.469 216.635 360.857 216.768C361.245 216.901 361.598 217.116 361.916 217.414C362.234 217.709 362.488 218.1 362.677 218.588C362.866 219.075 362.96 219.675 362.96 220.387V220.884H357.074V219.87H361.767C361.767 219.439 361.681 219.055 361.508 218.717C361.339 218.379 361.097 218.112 360.782 217.916C360.471 217.721 360.103 217.623 359.679 217.623C359.211 217.623 358.807 217.739 358.466 217.971C358.128 218.2 357.867 218.498 357.685 218.866C357.503 219.234 357.412 219.628 357.412 220.049V220.725C357.412 221.302 357.511 221.791 357.71 222.192C357.912 222.59 358.192 222.893 358.55 223.102C358.908 223.307 359.324 223.41 359.798 223.41C360.106 223.41 360.385 223.367 360.633 223.281C360.885 223.191 361.102 223.059 361.285 222.883C361.467 222.704 361.608 222.482 361.707 222.217L362.841 222.535C362.721 222.92 362.521 223.258 362.239 223.549C361.957 223.838 361.609 224.063 361.195 224.225C360.781 224.384 360.315 224.464 359.798 224.464ZM366.992 224.484C366.508 224.484 366.069 224.393 365.674 224.21C365.28 224.025 364.967 223.758 364.735 223.41C364.503 223.059 364.387 222.634 364.387 222.137C364.387 221.7 364.473 221.345 364.645 221.073C364.818 220.798 365.048 220.583 365.336 220.427C365.625 220.271 365.943 220.155 366.291 220.079C366.642 220 366.995 219.937 367.35 219.89C367.814 219.83 368.19 219.786 368.478 219.756C368.77 219.723 368.982 219.668 369.115 219.592C369.251 219.516 369.319 219.383 369.319 219.194V219.154C369.319 218.664 369.184 218.283 368.916 218.011C368.651 217.739 368.248 217.603 367.708 217.603C367.148 217.603 366.709 217.726 366.39 217.971C366.072 218.216 365.848 218.478 365.719 218.757L364.606 218.359C364.804 217.895 365.07 217.534 365.401 217.275C365.736 217.013 366.1 216.831 366.495 216.728C366.892 216.622 367.284 216.569 367.668 216.569C367.913 216.569 368.195 216.599 368.513 216.659C368.835 216.715 369.145 216.833 369.443 217.012C369.745 217.191 369.995 217.461 370.194 217.822C370.392 218.183 370.492 218.667 370.492 219.274V224.305H369.319V223.271H369.259C369.179 223.437 369.047 223.614 368.861 223.803C368.676 223.992 368.429 224.152 368.12 224.285C367.812 224.418 367.436 224.484 366.992 224.484ZM367.171 223.43C367.635 223.43 368.026 223.339 368.344 223.156C368.666 222.974 368.908 222.739 369.07 222.451C369.236 222.162 369.319 221.859 369.319 221.541V220.467C369.269 220.527 369.16 220.581 368.991 220.631C368.825 220.677 368.633 220.719 368.414 220.755C368.198 220.788 367.988 220.818 367.782 220.845C367.58 220.868 367.416 220.888 367.29 220.904C366.985 220.944 366.7 221.009 366.435 221.098C366.173 221.184 365.961 221.315 365.799 221.491C365.64 221.663 365.56 221.899 365.56 222.197C365.56 222.605 365.711 222.913 366.013 223.122C366.317 223.327 366.704 223.43 367.171 223.43ZM375.736 224.464C375.02 224.464 374.403 224.295 373.886 223.957C373.369 223.619 372.972 223.153 372.693 222.56C372.415 221.967 372.275 221.289 372.275 220.527C372.275 219.751 372.418 219.067 372.703 218.473C372.991 217.877 373.392 217.411 373.906 217.076C374.423 216.738 375.026 216.569 375.716 216.569C376.253 216.569 376.737 216.669 377.168 216.867C377.598 217.066 377.951 217.345 378.226 217.703C378.502 218.061 378.672 218.478 378.739 218.955H377.565C377.476 218.607 377.277 218.299 376.969 218.031C376.664 217.759 376.253 217.623 375.736 217.623C375.278 217.623 374.877 217.742 374.533 217.981C374.191 218.216 373.924 218.549 373.732 218.98C373.543 219.408 373.449 219.91 373.449 220.487C373.449 221.077 373.542 221.59 373.727 222.028C373.916 222.465 374.181 222.805 374.523 223.047C374.867 223.289 375.272 223.41 375.736 223.41C376.041 223.41 376.317 223.357 376.566 223.251C376.815 223.145 377.025 222.992 377.197 222.794C377.37 222.595 377.492 222.356 377.565 222.078H378.739C378.672 222.528 378.508 222.934 378.246 223.296C377.988 223.654 377.645 223.939 377.217 224.151C376.793 224.36 376.299 224.464 375.736 224.464ZM381.627 219.711V224.305H380.454V214.123H381.627V217.862H381.726C381.905 217.467 382.174 217.154 382.532 216.922C382.893 216.687 383.374 216.569 383.974 216.569C384.494 216.569 384.95 216.674 385.341 216.882C385.732 217.088 386.035 217.404 386.251 217.832C386.469 218.256 386.579 218.796 386.579 219.453V224.305H385.405V219.532C385.405 218.926 385.248 218.457 384.933 218.125C384.622 217.79 384.189 217.623 383.636 217.623C383.251 217.623 382.906 217.704 382.601 217.867C382.3 218.029 382.061 218.266 381.886 218.578C381.713 218.889 381.627 219.267 381.627 219.711ZM188.424 244.464C187.735 244.464 187.13 244.3 186.61 243.972C186.093 243.644 185.688 243.185 185.396 242.595C185.108 242.005 184.964 241.315 184.964 240.527C184.964 239.731 185.108 239.037 185.396 238.443C185.688 237.85 186.093 237.389 186.61 237.061C187.13 236.733 187.735 236.569 188.424 236.569C189.114 236.569 189.717 236.733 190.234 237.061C190.754 237.389 191.159 237.85 191.447 238.443C191.739 239.037 191.884 239.731 191.884 240.527C191.884 241.315 191.739 242.005 191.447 242.595C191.159 243.185 190.754 243.644 190.234 243.972C189.717 244.3 189.114 244.464 188.424 244.464ZM188.424 243.41C188.948 243.41 189.379 243.276 189.717 243.007C190.055 242.739 190.305 242.386 190.468 241.948C190.63 241.511 190.711 241.037 190.711 240.527C190.711 240.016 190.63 239.54 190.468 239.1C190.305 238.659 190.055 238.303 189.717 238.031C189.379 237.759 188.948 237.623 188.424 237.623C187.901 237.623 187.47 237.759 187.132 238.031C186.794 238.303 186.543 238.659 186.381 239.1C186.218 239.54 186.137 240.016 186.137 240.527C186.137 241.037 186.218 241.511 186.381 241.948C186.543 242.386 186.794 242.739 187.132 243.007C187.47 243.276 187.901 243.41 188.424 243.41ZM198.488 241.183V236.669H199.661V244.305H198.488V243.012H198.408C198.229 243.4 197.951 243.73 197.573 244.002C197.195 244.27 196.718 244.404 196.141 244.404C195.664 244.404 195.24 244.3 194.869 244.091C194.497 243.879 194.206 243.561 193.994 243.137C193.781 242.709 193.675 242.17 193.675 241.521V236.669H194.849V241.441C194.849 241.998 195.004 242.442 195.316 242.774C195.631 243.105 196.032 243.271 196.519 243.271C196.811 243.271 197.107 243.196 197.409 243.047C197.714 242.898 197.969 242.669 198.175 242.361C198.384 242.053 198.488 241.66 198.488 241.183ZM205.131 236.669V237.663H201.174V236.669H205.131ZM202.327 234.839H203.501V242.117C203.501 242.449 203.549 242.697 203.645 242.863C203.744 243.026 203.87 243.135 204.023 243.191C204.178 243.244 204.342 243.271 204.515 243.271C204.644 243.271 204.75 243.264 204.833 243.251C204.916 243.234 204.982 243.221 205.032 243.211L205.27 244.265C205.191 244.295 205.08 244.325 204.937 244.355C204.795 244.388 204.614 244.404 204.395 244.404C204.064 244.404 203.739 244.333 203.421 244.191C203.106 244.048 202.844 243.831 202.635 243.539C202.43 243.248 202.327 242.88 202.327 242.436V234.839ZM216.243 238.379L215.189 238.677C215.122 238.501 215.025 238.331 214.895 238.165C214.769 237.996 214.597 237.857 214.378 237.747C214.16 237.638 213.88 237.583 213.538 237.583C213.071 237.583 212.681 237.691 212.37 237.906C212.062 238.119 211.907 238.389 211.907 238.717C211.907 239.009 212.014 239.239 212.226 239.408C212.438 239.577 212.769 239.718 213.22 239.83L214.354 240.109C215.036 240.275 215.545 240.528 215.88 240.87C216.215 241.208 216.382 241.643 216.382 242.177C216.382 242.615 216.256 243.006 216.004 243.35C215.756 243.695 215.407 243.967 214.96 244.166C214.513 244.365 213.992 244.464 213.399 244.464C212.62 244.464 211.975 244.295 211.465 243.957C210.955 243.619 210.631 243.125 210.496 242.475L211.609 242.197C211.715 242.608 211.916 242.916 212.211 243.122C212.509 243.327 212.898 243.43 213.379 243.43C213.926 243.43 214.36 243.314 214.682 243.082C215.006 242.847 215.169 242.565 215.169 242.237C215.169 241.972 215.076 241.75 214.89 241.571C214.705 241.388 214.42 241.252 214.035 241.163L212.763 240.865C212.063 240.699 211.55 240.442 211.221 240.094C210.897 239.743 210.734 239.304 210.734 238.777C210.734 238.346 210.855 237.964 211.097 237.633C211.342 237.302 211.675 237.041 212.096 236.853C212.521 236.664 213.001 236.569 213.538 236.569C214.294 236.569 214.887 236.735 215.318 237.066C215.752 237.398 216.06 237.835 216.243 238.379ZM219.321 239.711V244.305H218.148V234.123H219.321V237.862H219.421C219.6 237.467 219.868 237.154 220.226 236.922C220.587 236.687 221.068 236.569 221.668 236.569C222.188 236.569 222.644 236.674 223.035 236.882C223.426 237.088 223.73 237.404 223.945 237.832C224.164 238.256 224.273 238.796 224.273 239.453V244.305H223.1V239.532C223.1 238.926 222.942 238.457 222.627 238.125C222.316 237.79 221.883 237.623 221.33 237.623C220.945 237.623 220.601 237.704 220.296 237.867C219.994 238.029 219.756 238.266 219.58 238.578C219.408 238.889 219.321 239.267 219.321 239.711ZM229.522 244.464C228.832 244.464 228.228 244.3 227.707 243.972C227.19 243.644 226.786 243.185 226.494 242.595C226.206 242.005 226.062 241.315 226.062 240.527C226.062 239.731 226.206 239.037 226.494 238.443C226.786 237.85 227.19 237.389 227.707 237.061C228.228 236.733 228.832 236.569 229.522 236.569C230.211 236.569 230.814 236.733 231.331 237.061C231.852 237.389 232.256 237.85 232.545 238.443C232.836 239.037 232.982 239.731 232.982 240.527C232.982 241.315 232.836 242.005 232.545 242.595C232.256 243.185 231.852 243.644 231.331 243.972C230.814 244.3 230.211 244.464 229.522 244.464ZM229.522 243.41C230.046 243.41 230.476 243.276 230.814 243.007C231.153 242.739 231.403 242.386 231.565 241.948C231.728 241.511 231.809 241.037 231.809 240.527C231.809 240.016 231.728 239.54 231.565 239.1C231.403 238.659 231.153 238.303 230.814 238.031C230.476 237.759 230.046 237.623 229.522 237.623C228.998 237.623 228.567 237.759 228.229 238.031C227.891 238.303 227.641 238.659 227.479 239.1C227.316 239.54 227.235 240.016 227.235 240.527C227.235 241.037 227.316 241.511 227.479 241.948C227.641 242.386 227.891 242.739 228.229 243.007C228.567 243.276 228.998 243.41 229.522 243.41ZM234.773 244.305V236.669H235.907V237.822H235.986C236.125 237.444 236.377 237.138 236.742 236.902C237.106 236.667 237.517 236.549 237.975 236.549C238.061 236.549 238.169 236.551 238.298 236.554C238.427 236.558 238.525 236.563 238.591 236.569V237.762C238.551 237.752 238.46 237.737 238.318 237.718C238.179 237.694 238.031 237.683 237.875 237.683C237.504 237.683 237.173 237.761 236.881 237.916C236.593 238.069 236.364 238.281 236.195 238.553C236.029 238.821 235.946 239.128 235.946 239.473V244.305H234.773ZM243.782 236.669V237.663H239.824V236.669H243.782ZM240.978 234.839H242.151V242.117C242.151 242.449 242.199 242.697 242.295 242.863C242.395 243.026 242.52 243.135 242.673 243.191C242.829 243.244 242.993 243.271 243.165 243.271C243.294 243.271 243.4 243.264 243.483 243.251C243.566 243.234 243.632 243.221 243.682 243.211L243.921 244.265C243.841 244.295 243.73 244.325 243.588 244.355C243.445 244.388 243.265 244.404 243.046 244.404C242.714 244.404 242.39 244.333 242.071 244.191C241.757 244.048 241.495 243.831 241.286 243.539C241.08 243.248 240.978 242.88 240.978 242.436V234.839ZM246.884 234.123V244.305H245.711V234.123H246.884ZM249.789 247.169C249.59 247.169 249.412 247.152 249.257 247.119C249.101 247.089 248.993 247.059 248.933 247.029L249.232 245.995C249.517 246.068 249.769 246.095 249.987 246.075C250.206 246.055 250.4 245.957 250.569 245.781C250.741 245.609 250.899 245.329 251.041 244.941L251.26 244.345L248.436 236.669H249.709L251.817 242.754H251.896L254.004 236.669H255.277L252.036 245.419C251.89 245.813 251.709 246.139 251.494 246.398C251.278 246.66 251.028 246.854 250.743 246.98C250.461 247.106 250.143 247.169 249.789 247.169Z" fill="#475467"/>
</g>
</g>
<defs>
<filter id="filter0_dd_1_1111" x="0" y="0" width="440" height="309.305" filterUnits="userSpaceOnUse" color-interpolation-filters="sRGB">
<feFlood flood-opacity="0" result="BackgroundImageFix"/>
<feColorMatrix in="SourceAlpha" type="matrix" values="0 0 0 0 0 0 0 0 0 0 0 0 0 0 0 0 0 0 127 0" result="hardAlpha"/>
<feMorphology radius="4" operator="erode" in="SourceAlpha" result="effect1_dropShadow_1_1111"/>
<feOffset dy="8"/>
<feGaussianBlur stdDeviation="4"/>
<feColorMatrix type="matrix" values="0 0 0 0 0.0627451 0 0 0 0 0.0941176 0 0 0 0 0.156863 0 0 0 0.04 0"/>
<feBlend mode="normal" in2="BackgroundImageFix" result="effect1_dropShadow_1_1111"/>
<feColorMatrix in="SourceAlpha" type="matrix" values="0 0 0 0 0 0 0 0 0 0 0 0 0 0 0 0 0 0 127 0" result="hardAlpha"/>
<feMorphology radius="4" operator="erode" in="SourceAlpha" result="effect2_dropShadow_1_1111"/>
<feOffset dy="20"/>
<feGaussianBlur stdDeviation="12"/>
<feColorMatrix type="matrix" values="0 0 0 0 0.0627451 0 0 0 0 0.0941176 0 0 0 0 0.156863 0 0 0 0.1 0"/>
<feBlend mode="normal" in2="effect1_dropShadow_1_1111" result="effect2_dropShadow_1_1111"/>
<feBlend mode="normal" in="SourceGraphic" in2="effect2_dropShadow_1_1111" result="shape"/>
</filter>
<linearGradient id="paint0_linear_1_1111" x1="266.127" y1="44.6565" x2="273.986" y2="26.0207" gradientUnits="userSpaceOnUse">
<stop stop-color="#E36B37"/>
<stop offset="0.5" stop-color="#E7A78B"/>
<stop offset="0.994792" stop-color="#E36B37"/>
</linearGradient>
<clipPath id="clip0_1_1111">
<rect x="20" width="400" height="269.305" rx="12" fill="white"/>
</clipPath>
</defs>
</svg>
