<svg width="20" height="21" viewBox="0 0 20 21" fill="none" xmlns="http://www.w3.org/2000/svg">
<g id="SVG">
<g id="Group">
<path id="Vector" d="M19.3273 5.88601C19.2801 5.7718 19.2 5.67417 19.0972 5.60547C18.9944 5.53678 18.8736 5.5001 18.75 5.50007H16.3727C16.0403 4.93459 15.5672 4.46473 14.9995 4.13617C14.4318 3.80761 13.7887 3.63154 13.1328 3.62507C12.6442 3.61866 12.1591 3.71005 11.7063 3.89386C11.2535 4.07767 10.842 4.35019 10.4961 4.69538C10.1401 5.04478 9.85746 5.46183 9.66494 5.92201C9.47241 6.3822 9.37383 6.87624 9.375 7.37507V7.85085C6.22969 7.02116 3.65703 4.46257 3.62969 4.43523C3.54584 4.35063 3.43956 4.29176 3.32337 4.26555C3.20719 4.23933 3.08593 4.24686 2.97387 4.28724C2.86182 4.32763 2.76364 4.3992 2.6909 4.49351C2.61816 4.58783 2.57388 4.70097 2.56328 4.8196C2.22656 8.5532 3.31094 11.0516 4.28203 12.4899C4.75553 13.2009 5.33155 13.838 5.99141 14.3805C4.80156 15.7501 2.92812 16.4696 2.90781 16.4774C2.81962 16.5104 2.74003 16.563 2.675 16.6311C2.60996 16.6992 2.56116 16.7811 2.53223 16.8708C2.50331 16.9604 2.49502 17.0554 2.50797 17.1487C2.52092 17.2419 2.55478 17.3311 2.60703 17.4094C2.66562 17.4969 2.9 17.804 3.47266 18.0907C4.18047 18.4454 5.11562 18.6251 6.25 18.6251C11.7711 18.6251 16.3844 14.3735 16.8555 8.9032L19.1922 6.56726C19.2796 6.4798 19.339 6.3684 19.3631 6.24714C19.3872 6.12587 19.3747 6.0002 19.3273 5.88601ZM15.8117 8.18366C15.7046 8.29108 15.6401 8.43381 15.6305 8.58523C15.3125 13.5141 11.1937 17.3751 6.25 17.3751C5.425 17.3751 4.84375 17.2657 4.43594 17.1344C5.33516 16.6462 6.58906 15.8063 7.39531 14.5969C7.44263 14.5258 7.47487 14.4458 7.49005 14.3617C7.50522 14.2777 7.503 14.1914 7.48352 14.1082C7.46405 14.025 7.42773 13.9467 7.37682 13.8782C7.32591 13.8096 7.26147 13.7522 7.1875 13.7094C7.15078 13.6884 3.75703 11.6516 3.75 6.20945C5 7.22507 7.28516 8.80085 9.89609 9.23991C9.98558 9.255 10.0773 9.25042 10.1648 9.22649C10.2523 9.20256 10.3336 9.15986 10.403 9.10135C10.4723 9.04284 10.5281 8.96993 10.5665 8.88768C10.6048 8.80543 10.6248 8.71582 10.625 8.62507V7.37507C10.6243 7.04167 10.6903 6.7115 10.8191 6.40399C10.9479 6.09647 11.1369 5.81783 11.375 5.58445C11.6032 5.35577 11.875 5.17518 12.1743 5.05333C12.4735 4.93149 12.7941 4.87088 13.1172 4.87507C14.1062 4.88757 15.0305 5.4907 15.4172 6.37585C15.4659 6.48714 15.5461 6.5818 15.6478 6.64827C15.7495 6.71473 15.8683 6.75011 15.9898 6.75007H17.2398L15.8117 8.18366Z" fill="#4E616B"/>
</g>
</g>
</svg>
